<mxfile host="65bd71144e" modified="2021-02-05T16:58:53.341Z" agent="5.0 (Macintosh; Intel Mac OS X 11_0_0) AppleWebKit/537.36 (KHTML, like Gecko) Code/1.52.1 Chrome/83.0.4103.122 Electron/9.3.5 Safari/537.36" etag="C3BWxXH2orrGQM7jLxTX" version="13.10.0" type="embed" pages="2">
    <diagram id="zawdO9K7sHIXPPSgqz1S" name="IBM Public Cloud">
        <mxGraphModel dx="2172" dy="1714" grid="1" gridSize="10" guides="1" tooltips="1" connect="1" arrows="1" fold="1" page="1" pageScale="1" pageWidth="827" pageHeight="1169" math="0" shadow="0">
            <root>
                <mxCell id="0"/>
                <mxCell id="1" parent="0"/>
                <mxCell id="W6fNKKuVKiUhsK_AsJEE-21" value="Public Network" style="shape=mxgraph.ibm.box;prType=public;fontStyle=0;verticalAlign=top;align=left;spacingLeft=32;spacingTop=4;fillColor=none;rounded=0;whiteSpace=wrap;html=1;strokeColor=#4376BB;strokeWidth=3;dashed=0;container=1;spacing=-4;collapsible=0;expand=0;recursiveResize=0;" parent="1" vertex="1">
                    <mxGeometry x="10" y="30" width="130" height="630" as="geometry"/>
                </mxCell>
                <mxCell id="W6fNKKuVKiUhsK_AsJEE-24" style="edgeStyle=orthogonalEdgeStyle;rounded=1;orthogonalLoop=1;jettySize=auto;html=1;fontSize=10;strokeColor=#b85450;strokeWidth=2;fillColor=#f8cecc;endFill=0;endArrow=none;" parent="W6fNKKuVKiUhsK_AsJEE-21" source="W6fNKKuVKiUhsK_AsJEE-17" target="W6fNKKuVKiUhsK_AsJEE-23" edge="1">
                    <mxGeometry relative="1" as="geometry"/>
                </mxCell>
                <mxCell id="W6fNKKuVKiUhsK_AsJEE-17" value="User" style="aspect=fixed;perimeter=ellipsePerimeter;html=1;align=center;shadow=0;dashed=0;fontColor=#4277BB;labelBackgroundColor=#ffffff;fontSize=10;spacingTop=3;image;image=img/lib/ibm/users/user.svg;" parent="W6fNKKuVKiUhsK_AsJEE-21" vertex="1">
                    <mxGeometry x="30" y="170" width="40" height="40" as="geometry"/>
                </mxCell>
                <mxCell id="W6fNKKuVKiUhsK_AsJEE-23" value="Internet" style="aspect=fixed;perimeter=ellipsePerimeter;html=1;align=center;shadow=0;dashed=0;fontColor=#4277BB;labelBackgroundColor=#ffffff;fontSize=12;spacingTop=3;image;image=img/lib/ibm/vpc/Internet.svg;fillColor=none;" parent="W6fNKKuVKiUhsK_AsJEE-21" vertex="1">
                    <mxGeometry x="30" y="262" width="40" height="40" as="geometry"/>
                </mxCell>
                <mxCell id="W6fNKKuVKiUhsK_AsJEE-1" value="IBM Cloud" style="shape=mxgraph.ibm.box;prType=cloud;fontStyle=0;verticalAlign=top;align=left;spacingLeft=32;spacingTop=4;fillColor=none;rounded=0;whiteSpace=wrap;html=1;strokeColor=#4376BB;strokeWidth=3;dashed=0;container=1;spacing=-4;collapsible=0;expand=0;recursiveResize=0;" parent="1" vertex="1">
                    <mxGeometry x="140" y="30" width="720" height="630" as="geometry"/>
                </mxCell>
                <mxCell id="W6fNKKuVKiUhsK_AsJEE-3" value="Region A" style="shape=mxgraph.ibm.box;prType=region;fontStyle=0;verticalAlign=top;align=left;spacingLeft=32;spacingTop=4;fillColor=none;rounded=0;whiteSpace=wrap;html=1;strokeColor=#919191;strokeWidth=2;dashed=0;container=1;spacing=-4;collapsible=0;expand=0;recursiveResize=0;" parent="W6fNKKuVKiUhsK_AsJEE-1" vertex="1">
                    <mxGeometry x="60" y="30" width="650" height="590" as="geometry"/>
                </mxCell>
                <mxCell id="W6fNKKuVKiUhsK_AsJEE-244" value="OpenShift Master Nodes (IBM Managed)" style="shape=mxgraph.ibm.box;prType=cloud;fontStyle=0;verticalAlign=top;align=left;spacingLeft=32;spacingTop=4;fillColor=none;rounded=0;whiteSpace=wrap;html=1;strokeColor=#4376BB;strokeWidth=3;dashed=0;container=1;spacing=-4;collapsible=0;expand=0;recursiveResize=0;labelBackgroundColor=none;fontSize=8;" parent="W6fNKKuVKiUhsK_AsJEE-3" vertex="1">
                    <mxGeometry x="235.5" y="460" width="179" height="120" as="geometry"/>
                </mxCell>
                <mxCell id="W6fNKKuVKiUhsK_AsJEE-243" value="" style="html=1;dashed=0;whitespace=wrap;strokeColor=#ffffff;points=[[0.005,0.63,0],[0.1,0.2,0],[0.9,0.2,0],[0.5,0,0],[0.995,0.63,0],[0.72,0.99,0],[0.5,1,0],[0.28,0.99,0]];shape=mxgraph.kubernetes.icon;prIcon=master;labelBackgroundColor=none;fontSize=8;fontColor=#7EA6E0;fillColor=#4376BB;" parent="W6fNKKuVKiUhsK_AsJEE-244" vertex="1">
                    <mxGeometry y="-5" width="25" height="35" as="geometry"/>
                </mxCell>
                <mxCell id="W6fNKKuVKiUhsK_AsJEE-245" value="" style="aspect=fixed;perimeter=ellipsePerimeter;html=1;align=center;shadow=0;dashed=0;fontColor=#4277BB;labelBackgroundColor=#ffffff;fontSize=12;spacingTop=3;image;image=img/lib/ibm/vpc/Instance.svg;strokeColor=#000000;fillColor=#4376BB;" parent="W6fNKKuVKiUhsK_AsJEE-244" vertex="1">
                    <mxGeometry x="19" y="40" width="40" height="40" as="geometry"/>
                </mxCell>
                <mxCell id="W6fNKKuVKiUhsK_AsJEE-246" value="" style="aspect=fixed;perimeter=ellipsePerimeter;html=1;align=center;shadow=0;dashed=0;fontColor=#4277BB;labelBackgroundColor=#ffffff;fontSize=12;spacingTop=3;image;image=img/lib/ibm/vpc/Instance.svg;strokeColor=#000000;fillColor=#4376BB;" parent="W6fNKKuVKiUhsK_AsJEE-244" vertex="1">
                    <mxGeometry x="69.5" y="40" width="40" height="40" as="geometry"/>
                </mxCell>
                <mxCell id="W6fNKKuVKiUhsK_AsJEE-247" value="" style="aspect=fixed;perimeter=ellipsePerimeter;html=1;align=center;shadow=0;dashed=0;fontColor=#4277BB;labelBackgroundColor=#ffffff;fontSize=12;spacingTop=3;image;image=img/lib/ibm/vpc/Instance.svg;strokeColor=#000000;fillColor=#4376BB;" parent="W6fNKKuVKiUhsK_AsJEE-244" vertex="1">
                    <mxGeometry x="119" y="40" width="40" height="40" as="geometry"/>
                </mxCell>
                <mxCell id="W6fNKKuVKiUhsK_AsJEE-248" value="replicas across three zones in MZR" style="text;html=1;strokeColor=none;fillColor=none;align=center;verticalAlign=middle;whiteSpace=wrap;rounded=0;dashed=1;labelBackgroundColor=none;fontSize=10;fontColor=#000000;" parent="W6fNKKuVKiUhsK_AsJEE-244" vertex="1">
                    <mxGeometry x="10" y="90" width="160" height="20" as="geometry"/>
                </mxCell>
                <mxCell id="W6fNKKuVKiUhsK_AsJEE-236" value="" style="fontStyle=1;verticalAlign=top;align=center;spacingTop=-2;fillColor=none;rounded=0;whiteSpace=wrap;html=1;strokeColor=#4376BB;strokeWidth=2;dashed=0;container=1;collapsible=0;expand=0;recursiveResize=0;labelBackgroundColor=none;fontSize=8;fontColor=#000000;" parent="W6fNKKuVKiUhsK_AsJEE-3" vertex="1">
                    <mxGeometry x="550" y="40" width="90" height="250" as="geometry"/>
                </mxCell>
                <mxCell id="W6fNKKuVKiUhsK_AsJEE-235" value="STORAGE" style="aspect=fixed;perimeter=ellipsePerimeter;html=1;align=center;shadow=0;dashed=0;fontColor=#4277BB;labelBackgroundColor=#ffffff;fontSize=8;spacingTop=3;image;image=img/lib/ibm/security/data_security.svg;strokeColor=#000000;fillColor=#ffffff;flipH=0;" parent="W6fNKKuVKiUhsK_AsJEE-236" vertex="1">
                    <mxGeometry x="25" y="20" width="40" height="40" as="geometry"/>
                </mxCell>
                <mxCell id="W6fNKKuVKiUhsK_AsJEE-241" value="CONTAINER&lt;br style=&quot;font-size: 8px;&quot;&gt;REGISTRY" style="aspect=fixed;perimeter=ellipsePerimeter;html=1;align=center;shadow=0;dashed=0;fontColor=#4277BB;labelBackgroundColor=#ffffff;fontSize=8;spacingTop=3;image;image=img/lib/ibm/data/file_repository.svg;strokeColor=#000000;fillColor=#ffffff;flipH=0;" parent="W6fNKKuVKiUhsK_AsJEE-236" vertex="1">
                    <mxGeometry x="25" y="90" width="40" height="40" as="geometry"/>
                </mxCell>
                <mxCell id="W6fNKKuVKiUhsK_AsJEE-242" value="MONITORING&lt;br style=&quot;font-size: 8px;&quot;&gt;AND LOGGIG" style="aspect=fixed;perimeter=ellipsePerimeter;html=1;align=center;shadow=0;dashed=0;fontColor=#4277BB;labelBackgroundColor=#ffffff;fontSize=8;spacingTop=3;image;image=img/lib/ibm/management/monitoring_metrics.svg;strokeColor=#000000;fillColor=#ffffff;flipH=0;" parent="W6fNKKuVKiUhsK_AsJEE-236" vertex="1">
                    <mxGeometry x="25" y="170" width="40" height="40" as="geometry"/>
                </mxCell>
                <mxCell id="kz8PZC0MePa_d6amyWjo-16" style="edgeStyle=orthogonalEdgeStyle;rounded=1;orthogonalLoop=1;jettySize=auto;html=1;endArrow=none;endFill=0;strokeWidth=2;fontSize=10;fillColor=#f8cecc;strokeColor=#b85450;" parent="W6fNKKuVKiUhsK_AsJEE-3" source="kz8PZC0MePa_d6amyWjo-9" target="W6fNKKuVKiUhsK_AsJEE-26" edge="1">
                    <mxGeometry relative="1" as="geometry">
                        <Array as="points">
                            <mxPoint x="50" y="252"/>
                        </Array>
                    </mxGeometry>
                </mxCell>
                <mxCell id="kz8PZC0MePa_d6amyWjo-20" style="edgeStyle=orthogonalEdgeStyle;orthogonalLoop=1;jettySize=auto;html=1;entryX=0.001;entryY=0.319;entryDx=0;entryDy=0;entryPerimeter=0;endArrow=none;endFill=0;strokeColor=#6c8ebf;strokeWidth=2;fillColor=#dae8fc;fontSize=10;" parent="W6fNKKuVKiUhsK_AsJEE-3" source="kz8PZC0MePa_d6amyWjo-9" target="W6fNKKuVKiUhsK_AsJEE-5" edge="1">
                    <mxGeometry relative="1" as="geometry">
                        <Array as="points">
                            <mxPoint x="40" y="100"/>
                        </Array>
                    </mxGeometry>
                </mxCell>
                <mxCell id="kz8PZC0MePa_d6amyWjo-21" style="edgeStyle=orthogonalEdgeStyle;orthogonalLoop=1;jettySize=auto;html=1;entryX=-0.003;entryY=0.645;entryDx=0;entryDy=0;entryPerimeter=0;endArrow=none;endFill=0;strokeColor=#6c8ebf;strokeWidth=2;fillColor=#dae8fc;fontSize=10;" parent="W6fNKKuVKiUhsK_AsJEE-3" source="kz8PZC0MePa_d6amyWjo-9" target="W6fNKKuVKiUhsK_AsJEE-213" edge="1">
                    <mxGeometry relative="1" as="geometry">
                        <Array as="points">
                            <mxPoint x="40" y="399"/>
                        </Array>
                    </mxGeometry>
                </mxCell>
                <mxCell id="kz8PZC0MePa_d6amyWjo-22" style="edgeStyle=orthogonalEdgeStyle;orthogonalLoop=1;jettySize=auto;html=1;entryX=-0.003;entryY=0.236;entryDx=0;entryDy=0;entryPerimeter=0;endArrow=none;endFill=0;strokeColor=#6c8ebf;strokeWidth=2;fillColor=#dae8fc;fontSize=10;" parent="W6fNKKuVKiUhsK_AsJEE-3" source="kz8PZC0MePa_d6amyWjo-9" target="W6fNKKuVKiUhsK_AsJEE-205" edge="1">
                    <mxGeometry relative="1" as="geometry">
                        <Array as="points">
                            <mxPoint x="50" y="252"/>
                            <mxPoint x="50" y="220"/>
                        </Array>
                    </mxGeometry>
                </mxCell>
                <mxCell id="kz8PZC0MePa_d6amyWjo-9" value="POP" style="aspect=fixed;perimeter=ellipsePerimeter;html=1;align=center;shadow=0;dashed=0;fontColor=#4277BB;labelBackgroundColor=#ffffff;fontSize=10;spacingTop=3;image;image=img/lib/ibm/infrastructure/edge_services.svg;" parent="W6fNKKuVKiUhsK_AsJEE-3" vertex="1">
                    <mxGeometry x="20" y="232" width="40" height="40" as="geometry"/>
                </mxCell>
                <mxCell id="kz8PZC0MePa_d6amyWjo-12" style="edgeStyle=orthogonalEdgeStyle;rounded=1;orthogonalLoop=1;jettySize=auto;html=1;fontSize=10;exitX=0.999;exitY=0.305;exitDx=0;exitDy=0;exitPerimeter=0;endArrow=none;endFill=0;strokeWidth=2;fillColor=#dae8fc;strokeColor=#6c8ebf;" parent="W6fNKKuVKiUhsK_AsJEE-3" source="kz8PZC0MePa_d6amyWjo-10" target="W6fNKKuVKiUhsK_AsJEE-236" edge="1">
                    <mxGeometry relative="1" as="geometry"/>
                </mxCell>
                <mxCell id="kz8PZC0MePa_d6amyWjo-10" value="OpenShift Cluster" style="shape=mxgraph.ibm.box;prType=openshift;fontStyle=0;verticalAlign=top;align=left;spacingLeft=32;spacingTop=4;fillColor=none;rounded=0;whiteSpace=wrap;html=1;strokeColor=#4376BB;strokeWidth=2;dashed=0;container=1;spacing=-4;collapsible=0;expand=0;recursiveResize=0;fontSize=10;" parent="W6fNKKuVKiUhsK_AsJEE-3" vertex="1">
                    <mxGeometry x="100" y="40" width="420" height="410" as="geometry"/>
                </mxCell>
                <mxCell id="kz8PZC0MePa_d6amyWjo-11" value="" style="shape=image;verticalLabelPosition=bottom;labelBackgroundColor=#ffffff;verticalAlign=top;aspect=fixed;imageAspect=0;image=data:image/svg+xml,PHN2ZyB3aWR0aD0iNjZweCIgaGVpZ2h0PSI1OHB4IiB2aWV3Qm94PSIwIDAgNjYgNTgiIHZlcnNpb249IjEuMSIgeG1sbnM9Imh0dHA6Ly93d3cudzMub3JnLzIwMDAvc3ZnIiB4bWxuczp4bGluaz0iaHR0cDovL3d3dy53My5vcmcvMTk5OS94bGluayI+JiN4YTsgICAgPCEtLSBHZW5lcmF0b3I6IFNrZXRjaCA1MyAoNzI1MjApIC0gaHR0cHM6Ly9za2V0Y2hhcHAuY29tIC0tPiYjeGE7ICAgIDx0aXRsZT5Hcm91cCAxNTwvdGl0bGU+JiN4YTsgICAgPGRlc2M+Q3JlYXRlZCB3aXRoIFNrZXRjaC48L2Rlc2M+JiN4YTsgICAgPGcgaWQ9IlBhZ2UtMSIgc3Ryb2tlPSJub25lIiBzdHJva2Utd2lkdGg9IjEiIGZpbGw9Im5vbmUiIGZpbGwtcnVsZT0iZXZlbm9kZCI+JiN4YTsgICAgICAgIDxnIGlkPSJHcm91cC0xMiI+JiN4YTsgICAgICAgICAgICA8ZyBpZD0iR3JvdXAtMTUiPiYjeGE7ICAgICAgICAgICAgICAgIDxwb2x5Z29uIGlkPSJGaWxsLTEiIGZpbGw9IiMyODc1RTIiIHBvaW50cz0iMCA1Ny4zNDUzOTA5IDY1LjcwMDY2NjcgNTcuMzQ1MzkwOSA2NS43MDA2NjY3IC0wLjAwMDEzMTgxODE4MiAwIC0wLjAwMDEzMTgxODE4MiIvPiYjeGE7ICAgICAgICAgICAgICAgIDxwYXRoIGQ9Ik0yMC41NDQ0LDI2LjIxNTQwNjggTDEyLjExNTA2NjcsMjkuMjQ3MjI1IEMxMi4yMjMwNjY3LDMwLjU4MzIwMjMgMTIuNDU2NCwzMS45MDMzNjE0IDEyLjc4MzA2NjcsMzMuMTk3MTU2OCBMMjAuNzkwNCwzMC4zMTQ5NTIzIEMyMC41MzA0LDI4Ljk3NTY3OTUgMjAuNDM3NzMzMywyNy41OTYyMDIzIDIwLjU0NDQsMjYuMjE1NDA2OCBMMjAuNTQ0NCwyNi4yMTU0MDY4IFogTTU3Ljc5MTczMzMsMTcuMDAxOTc1IEM1Ny4yMDQ0LDE1LjgwMTc3MDUgNTYuNTI1MDY2NywxNC42NDM3NDc3IDU1LjczNjQsMTMuNTUyMjkzMiBMNDcuMzA5NzMzMywxNi41ODQxMTE0IEM0OC4yODk3MzMzLDE3LjU3NjA0MzIgNDkuMTEzNzMzMywxOC42OTA1NjU5IDQ5Ljc4NjQsMTkuODgyMjAyMyBMNTcuNzkxNzMzMywxNy4wMDE5NzUgWiIgaWQ9IkZpbGwtMyIgZmlsbD0iI0ZGRkZGRiIvPiYjeGE7ICAgICAgICAgICAgICAgIDxwYXRoIGQ9Ik0zOS4yNTAxMzMzLDE0LjY0MTM3NSBDNDEuMDAzNDY2NywxNS40NTA3Mzg2IDQyLjUyMTQ2NjcsMTYuNTUzMzk3NyA0My44MDI4LDE3Ljg0NjUzNDEgTDUyLjIyOTQ2NjcsMTQuODE1Mzc1IEM0OS44OTU0NjY3LDExLjU3NzI2MTQgNDYuNzE1NDY2Nyw4Ljg3MTAzNDA5IDQyLjgyMDEzMzMsNy4wNzQzNTIyNyBDMzAuNzczNDY2NywxLjUyMDg1MjI3IDE2LjQwMjEzMzMsNi42OTA3NjEzNiAxMC43ODU0NjY3LDE4LjU5OTg3NSBDOC45NjY4LDIyLjQ1MzU3OTUgOC4yOTA4LDI2LjU0NTg3NSA4LjYwODgsMzAuNTA5NjQ3NyBMMTcuMDM2OCwyNy40Nzg0ODg2IEMxNy4xNzYxMzMzLDI1LjY3MjU3OTUgMTcuNjIxNDY2NywyMy44NjMzNzUgMTguNDM4MTMzMywyMi4xMjg2NDc3IEMyMi4wODgxMzMzLDE0LjM5MTU3OTUgMzEuNDI0MTMzMywxMS4wMzM1MTE0IDM5LjI1MDEzMzMsMTQuNjQxMzc1IiBpZD0iRmlsbC01IiBmaWxsPSIjRkZGRkZGIi8+JiN4YTsgICAgICAgICAgICAgICAgPHBhdGggZD0iTTQ4LjIzNzgsMjkuODY1NTE4MiBDNDguMTAzMTMzMywzMS42Njk0NSA0Ny42NDI0NjY3LDMzLjQ3ODY1NDUgNDYuODIzMTMzMywzNS4yMTQ3IEM0My4xNzM4LDQyLjk1MzA4NjQgMzMuODM3MTMzMyw0Ni4zMTA0OTU1IDI2LjAxMjQ2NjcsNDIuNzAzOTUgQzI0LjI1NjQ2NjcsNDEuODkzMjY4MiAyMi43MjY0NjY3LDQwLjc5OTE3NzMgMjEuNDUwNDY2NywzOS41MDM0MDQ1IEwxMy4wNDExMzMzLDQyLjUyODYzMTggQzE1LjM2OTgsNDUuNzY2NzQ1NSAxOC41NDU4LDQ4LjQ3MzYzMTggMjIuNDQzOCw1MC4yNzIyOTA5IEMzNC40OTA0NjY3LDU1LjgyNDQ3MjcgNDguODU5OCw1MC42NTM5MDQ1IDU0LjQ3NzEzMzMsMzguNzQ0MTMxOCBDNTYuMjk3MTMzMywzNC44OTMwNjM2IDU2Ljk2ODQ2NjcsMzAuODAwMTA5MSA1Ni42NDcxMzMzLDI2LjgzOTYzMTggTDQ4LjIzNzgsMjkuODY1NTE4MiBaIiBpZD0iRmlsbC03IiBmaWxsPSIjRkZGRkZGIi8+JiN4YTsgICAgICAgICAgICAgICAgPHBhdGggZD0iTTEzLjMwODA2NjcsMzMuMDA2NDgxOCBMNS4zMDE0LDM1Ljg5MDAwNDUgQzYuMDM2NzMzMzMsMzguNzc2MTYzNiA3LjMxMjczMzMzLDQxLjUxODY0MDkgOS4wNjc0LDQzLjk1OTI1NDUgTDE3LjQ3NTQsNDAuOTMyNzA5MSBDMTUuMzE2NzMzMywzOC43NDE4OTA5IDEzLjg4MTQsMzUuOTY4NDM2NCAxMy4zMDgwNjY3LDMzLjAwNjQ4MTggTTUwLjMxMDA2NjcsMTkuNjk0MTYzNiBMNDIuMzAyNzMzMywyMi41NzUwNSBDNDMuNzkwNzMzMywyNS4yMDk0MzY0IDQ0LjQ5MzQsMjguMjQyNTcyNyA0NC4yNjI3MzMzLDMxLjI5Mjg0NTUgTDUyLjY3MjczMzMsMjguMjY5NTk1NSBDNTIuNDMxNCwyNS4yODU4OTA5IDUxLjYyNzQsMjIuMzczMzY4MiA1MC4zMTAwNjY3LDE5LjY5NDE2MzYiIGlkPSJGaWxsLTkiIGZpbGw9IiNGRkZGRkYiLz4mI3hhOyAgICAgICAgICAgICAgICA8cGF0aCBkPSJNMjAuNTExODY2NywyNy44ODgyNDU1IEMyMC40OTE4NjY3LDI3LjMzMjYzMTggMjAuNDk5ODY2NywyNi43NzU3IDIwLjU0Mzg2NjcsMjYuMjE2MTMxOCBMMTIuMTE1MiwyOS4yNDc5NSBDMTIuMTU5MiwyOS43ODExNTQ1IDEyLjIyNjUzMzMsMzAuMzExNzIyNyAxMi4zMDcyLDMwLjg0MDMxMzYgTDIwLjUxMTg2NjcsMjcuODg4MjQ1NSBaIE01Ni41NzE4NjY3LDE0LjgwNjYwOTEgQzU2LjMwNTg2NjcsMTQuMzgwODM2NCA1Ni4wMzA1MzMzLDEzLjk2MDk5NTUgNTUuNzM2NTMzMywxMy41NTIzNTkxIEw0Ny4zMTA1MzMzLDE2LjU4NDgzNjQgQzQ3LjY4MTIsMTYuOTU5ODU5MSA0OC4wMjI1MzMzLDE3LjM1NzI5MDkgNDguMzQ3ODY2NywxNy43NjY1ODY0IEw1Ni41NzE4NjY3LDE0LjgwNjYwOTEgWiIgaWQ9IkZpbGwtMTEiIGZpbGw9IiNGRkZGRkYiLz4mI3hhOyAgICAgICAgICAgICAgICA8cGF0aCBkPSJNMTMuMDQxOCw0Mi41Mjk4MTgyIEMxMy42ODk4LDQzLjQzMDc5NTUgMTQuNDA2NDY2Nyw0NC4yOTA5MDkxIDE1LjE4NTEzMzMsNDUuMTAyMjUgTDI0LjMzOTEzMzMsNDEuODAyMTgxOCBDMjMuMjY5OCw0MS4xNDA0NTQ1IDIyLjMwMzEzMzMsNDAuMzY4IDIxLjQ0OTgsMzkuNTAyNjEzNiBMMTMuMDQxOCw0Mi41Mjk4MTgyIFogTTU2LjY0NjQ2NjcsMjYuODM5NSBMNDguMjM3MTMzMywyOS44NjQ3MjczIEM0OC4xNDg0NjY3LDMxLjA2MjI5NTUgNDcuOTEzMTMzMywzMi4yNjE4NDA5IDQ3LjUyNzEzMzMsMzMuNDQwOTU0NSBMNTYuNjc5OCwzMC4xNDE1NDU1IEM1Ni43NDU4LDI5LjAzNTU5MDkgNTYuNzM1MTMzMywyNy45MzI5MzE4IDU2LjY0NjQ2NjcsMjYuODM5NSBMNTYuNjQ2NDY2NywyNi44Mzk1IFoiIGlkPSJGaWxsLTEzIiBmaWxsPSIjRkZGRkZGIi8+JiN4YTsgICAgICAgICAgICA8L2c+JiN4YTsgICAgICAgIDwvZz4mI3hhOyAgICA8L2c+JiN4YTs8L3N2Zz4=;" parent="kz8PZC0MePa_d6amyWjo-10" vertex="1">
                    <mxGeometry y="-0.2599999999999909" width="25" height="21.97" as="geometry"/>
                </mxCell>
                <mxCell id="W6fNKKuVKiUhsK_AsJEE-5" value="Availability Zone 1" style="shape=mxgraph.ibm.box;prType=zone;fontStyle=0;verticalAlign=top;align=left;spacingLeft=32;spacingTop=4;rounded=0;whiteSpace=wrap;html=1;strokeColor=#919191;strokeWidth=1;dashed=1;container=1;spacing=-4;collapsible=0;expand=0;recursiveResize=0;fillColor=none;" parent="kz8PZC0MePa_d6amyWjo-10" vertex="1">
                    <mxGeometry x="70" y="21.70999999999998" width="340" height="120" as="geometry"/>
                </mxCell>
                <mxCell id="W6fNKKuVKiUhsK_AsJEE-32" value="WORKER&#10;NODE 1" style="shape=image;verticalLabelPosition=bottom;verticalAlign=middle;imageAspect=0;image=data:image/png,iVBORw0KGgoAAAANSUhEUgAAAHQAAAB2CAYAAAAZUrcsAAAAAXNSR0IArs4c6QAAAAlwSFlzAAAXEgAAFxIBZ5/SUgAADdNJREFUeAHtXQuQFMUZ/ntmd8/jDgUOoxxRTEwiBrWiaOS4fXjyNEBVNIFo1BhNCmPUMhTcAZqKq/EFe+eDECvxkcRXGUBLtCwCBXre7p5CEENFL4nP5BCxRMDHcZx3uzOdv/eYYXZuHzOzM7OzXk/V1sx0//3/f3/fdk9PP6YB+MER4Ah4FwHiXdds84xE20+qgr7jAoEA9Q+IAxIcFAe6+nb0r1sAkm1WPKKo4gmNrp0UOOq4ulNEQicRAU4FIBMGfzAOMa7DDI4GAmJuvOnnlMJ+jNtLCNklU9pNKHlbpnLXIamnK9q089Pc6bwbWnGE3pkIjvZTMg1EEgQKU5CsMwmQgEMQv4M2tgKRX5bSZEtLJP62Q3ZsU1sRhK7oCJ8qCvADLIHzKMDZSKBgGwImFKHtbqD0b5TKT/emky9FmyBtIrkrop4l9PZ4aFyVKFyOAF6B1eG3XUHDlBF6QKZkDUnDn5ec17HdVFIHhT1H6IpkpMkH9AZ8Ds7N/+xzEBELqrHkvkFBXrXng/Tj9yx4pc+CCtuSeILQaBSEkdPD8xGYG7E0nmFb7lxWhP7vpzJd3Zv+/N5yNajKTmgsGV4gEIhiicQW6pfloJ9jdXyfDOnY0mBnj5u5KhuhbR3hqdhSbcNqdYqbGXbTFgW6F9sAN2/bk3jQrXde1wm9Y8t36wLV1TE0fKWb4JbTFr7r7sT28EI3Gk+uEtqaCF4CRFxFCIwtJ8DlsI2lVUawV+/+ILXMyYaTK4RmOgME8X40dnE5wPSSTSytb0qQvgyfra864ZfjhMYSwXMJEdZh6/UEJzJQiTqR1DTWUksXN3bcbbf/jhLalghfSwW428GuObvxcFUfvuY8JdH0VXa2hB0hNNoOvpH+8Gog5GpXEapIY/R1bDDNWRyJv2+H+7YTuiLZOFIk4joslbPscHBY6KD0Q+wfnrcklNxRan5t7eSObmwY4wPfi5xMk7QQMg7HG9pXxkMRkymHiNtWQle2n3O8EBixGRWeNsQKDzCIAO2TZPmillByo8EEQ8RsIbS1ffJY8Nd0eHNUZEievR1AoV+m0tzmUHKLFUdLrnLv2jz5GBKo2cTJtAJ/jjQEqggR12P125gjtmhQSYSy6R++6tr12LF+VlFLXMAwAviOWiMKwvNsYN9wosOCJRE6sr7uQTR+nlmjXN4AAgRG+XxkQ6xz6lcMSKsilgltTYaX4XvmT1RN/MIJBE4i1Ld+4R8n+40qt0RorCN8Pr6a3GbUCJezjgC2TRpOmVRjuIvQdCsXOw7qfSDuxNJ5rHU3eUqzCMiSfElzOPHXYunMEkrakuGNSObMYooLxYvEDwFxRCER2+MkmoIB6VBGb7ntW8kc9vt+lqbSGcuCyV2F0vsKRerjWjtD12GLtiQymc6TxzTC3FOievWO3r+17yV4/q1Bm3r7aXkgQzYjuspXo/phVzhTqLWvGjBxgSXvGKwZH8Ek5+MP+c19GH6G4nPza/jcvCu3GuuhDLRDqU+hP92bpSRfOBPKF5cvPEtxjpv3DrwMf9j+fdj8biwr1q7wLKUl3LA3itZE5JpCKgwTSkT4PZZO2+tJs6CxzFhJUwiEiooT4A42Zzmfz4YIbY2HfoitrQvyKeHh7iHAqt4qgdyTz2JRQllvEBHIinwKeLj7CGDh+lGsM9KQy3JRQmvH1V2Prdqv50rMw8qHAKG0LZf1goRG2yfVgkCW50rIw8qLAOtwiCUi8/ReFCS0xld3LdbZdfpE/N4bCOCKg9/oPclL6KK1DdX4L1iiT8DvPYQAgbNXJoKztR7lJbR+vO8yfO8ZdhOiteBUwrVIhEVaP/MSKlABl/Txw/MIEJihHTfNSWhrRziMi4gmeT4z3EFEgBCfD36hQJGTUPCRnyoC/Ox9BCiQS1l/AfN0CKGxTWfUEArzvZ8N7qGCAHsTqa2vm8vuhxAqjBj9PaxuaxVhfq4YBBYwT4cQimtRLqqYLHBHVQRwJGwOfmDrqCxCM3NXKJ2jSvGLykEAa9Ua8YRpWYR+a2JNA3YmjKycXHBPtQgIIpmZRSj4YIZWgF9XHAIzsgml5LyKywJ3WIMAOVUllK3pJIRO1sTyywpEQCV0hBjCDz6R6grMA3dZg4BKqEjIdzTh/LJCEVAJlYHyvtsKJVHrtkoozhvihGqRqdBrlVCg5KQKzQN3W4OASii2cE/UhA+rS1EIQLV/FC7PqMnKt13hWUodvskshWDf3ytXC9csaAwPK2kK4XjymKlwzRhct6w77ArXqXX0NkNoVVWgbBPBzILG0LCSxlEUPaQ8Q6gsiHVq3euCc8oaFBdMqSb6pSNrZ8ptX3XKgQscGwVY2RmeKQLZ5IB+rtJlBDIFk8ikymW73JxDCGSqXCrIOB/FvUq33Atuy23fIS4zajOEChRnEWUqXydNHdGtXXDLnmdsZbXRxbZMi5U02gW3WvtW9JVq/wgS9l9liiXuZNBvv2pjGq2s9bSSppA3ZvWZlS9k2+64wWeoIAzYrZjrKw8Cgw/ONFTcpm3lgcv7VjOEyv7UAe+7yj00gsAgoYf69xkR5jLeRyBD6LIZOz6jlPZ4313uYTEEBp+hTIqQ7mLCPN77CBwhlNL3vO8u97AYAiqhOJW+q5gwj/c+AiqhuJUTJ9T7fBX1UCVUkuC1otJcwPMIqIQujcT/g58E5B0MnqessIMqoShGsY9+W2FxHutlBNgOiFpC8Rbaveww960oAjuyCaV0c9EkXMC7CCB/WYS2hBP/QG8/8q7H3LOCCEhkUxahKIxbW9JnCybikd5EgNKPt30U79QTCjLA0970mHtVEAFK1rON24cQemgg/iKW0r0FE/NIzyEgyzSzY8QQQqNNkMYpKY97zmPuUF4EcEeB7uZIPPOGMoRQlkqSyV/ypuYRnkMACyDjC3kF/ExGjmNZJP56a2c4jh324RzRhoJG+EfDJaffr8omdz0Eb+57Qb0fzhf1I0+DC755kwrB1t2PQdfeDeq9uQuakon0gJImJ6GZSAr34dROy4QKuI3E0VXHK3YgIPDV/goYPqEqC5uqEjYlwvm3T+Gm7HsU3TmrXBa5bU/8WXyHeVcR5GePIiBLWd+ez0soawLjh+rv8Gg2uFsMAUo36Ddiz0sok+9Jxx/FuUb/ZddOHVbWelpJU8h/s/rMyheyXUqcTOVb9enzP0NRkr3CxJLwa1wl8YQ+oV33VtZ6WklTyF+z+szKF7JtOY7SZ3Cf7iGjYwVLKDPWHIw/iR0N2y0b5gkdQICmcELC0lyKC5bQwwmoLNFFoggJNjUwlxIjYazVqxzKglt8LVKCHD8PSH2qDZmmoS/1mXrv9AUWCNAuOC7VHvYK/a4lkng7lx4jhAKOwnS2JiMPI50/z6XESNixNd9Qxd77ZHA3QDXA5Yt3DiSB/SrxwDbN+73pAzfn871olaskTFGphffxKmiU74x12nXRpq6D+TwwTOjyUPITJHRhPkU83HkEsG/vscXB+HOFLBmqchUFzY2JZ3HL5ofxUfozJczoeeLYaTBh1DlGxb/UcqynyPRB6a50X+/1xdKZIpQp60nt/1VtYGwjFv2JxZRr4/1iNbAfP8wjgD12aQD5UrYGqVhqw1WuoojV31KaXoQNt7z1uCLLz3YhILcsCSYNteJMl1DmIs7h/XdbInIVELom36uMTCXYf6jbrhx9qfV8kc6/8A9btWuWBBN5d/TVA1PSi2BbZxjHgMhteqX83iYEKGztSXU3RZv+94VRjSURyoy0dkb+hEquNGqQyxlEAFcD9st0yo3hxMcGU2TETD9D9coPDnQsxF7/Z/Th/L4kBD6QJZhulkxmsWRCWQd+z579F+M7Kv+0XEkcHk6M0zHpwMB0nCNkaZSr5CpXyQPbpqk2cOJTbMsmJYyfTSJA6Yc4P2j6knDiXyZTquIll1BFE3twv/VG74V4v04J42fjCGAvULdE0qFSyGTWjgyBGLedV3LH8x/KU0/sfjpw8oRRWFKn5BXkEToE6Gv9Ep22PNS5Sxdh+ta2KldvOZYMXSeAcC+OkNn6p9HbqfR7fM98jvZ++uPmWf888kHfEjJlW5Wr96E5mFiN46gz+QiNHpnBe8RFxnHNWw5uiV9oF5lMs2MlVMnGbS80jK+u8q/BDv1GJWy4n7Fvdh/2pF3eEkputBsLx6vDFx/d3XPM7O5Hvnr0BPaByBD+hxy3aTdIturDmXpyqm92S2TrTlv1HlbmeAnVOr0yHjoL97h8CBtMZ2rDh8U1fr9CJnILDkE+6GR+XSWUZWT+WhCnjI/cgKM1t2CFPyz2+sZXkif7+75YdNP0bR85SSbT7TqhSoZuj4fGHSWQ31ICV2KJdaxxptgrz5n+nVJ5sdGhLzt8LBuhivN3dYRP94twM/61cDN367MKFX2eOFPows0Bb8UpsKyTBQuoe0fZCVWyGmufeprg9y1HYucjsX4lvJLO+CqyHSS6Ent72Cp4V4lUcPIMoYpDK5KN9QIVfykQwAF0Mk4J9+wZp9ziY+MZZG9Vc2PHK+X203OEKoCwxtM59eFZ+HC9AkvsHKyMa5S48p+xfwfgFZDJEymQnmQzIsvv06AHniVUC9CitQ3V44/3zcK9QOZhRTaDEHKCNt6Va5xDhV9a60ASN2An+nrtmkxX7Bs0UhGE6vPS2t4wEfy+IBsAoISciyRPxBJsaX6UXrdyjyVwN16/isNZW9HGy+90Hdz6wNU7Ukq8V8//B2posSq2NuAXAAAAAElFTkSuQmCC;fontColor=#417CB9;fontSize=8;spacingTop=-6;aspect=fixed;" parent="W6fNKKuVKiUhsK_AsJEE-5" vertex="1">
                    <mxGeometry x="170" y="39.99860465116285" width="40" height="40" as="geometry"/>
                </mxCell>
                <mxCell id="W6fNKKuVKiUhsK_AsJEE-50" value="WORKER&#10;NODE 2" style="shape=image;verticalLabelPosition=bottom;verticalAlign=middle;imageAspect=0;image=data:image/png,iVBORw0KGgoAAAANSUhEUgAAAHQAAAB2CAYAAAAZUrcsAAAAAXNSR0IArs4c6QAAAAlwSFlzAAAXEgAAFxIBZ5/SUgAADdNJREFUeAHtXQuQFMUZ/ntmd8/jDgUOoxxRTEwiBrWiaOS4fXjyNEBVNIFo1BhNCmPUMhTcAZqKq/EFe+eDECvxkcRXGUBLtCwCBXre7p5CEENFL4nP5BCxRMDHcZx3uzOdv/eYYXZuHzOzM7OzXk/V1sx0//3/f3/fdk9PP6YB+MER4Ah4FwHiXdds84xE20+qgr7jAoEA9Q+IAxIcFAe6+nb0r1sAkm1WPKKo4gmNrp0UOOq4ulNEQicRAU4FIBMGfzAOMa7DDI4GAmJuvOnnlMJ+jNtLCNklU9pNKHlbpnLXIamnK9q089Pc6bwbWnGE3pkIjvZTMg1EEgQKU5CsMwmQgEMQv4M2tgKRX5bSZEtLJP62Q3ZsU1sRhK7oCJ8qCvADLIHzKMDZSKBgGwImFKHtbqD0b5TKT/emky9FmyBtIrkrop4l9PZ4aFyVKFyOAF6B1eG3XUHDlBF6QKZkDUnDn5ec17HdVFIHhT1H6IpkpMkH9AZ8Ds7N/+xzEBELqrHkvkFBXrXng/Tj9yx4pc+CCtuSeILQaBSEkdPD8xGYG7E0nmFb7lxWhP7vpzJd3Zv+/N5yNajKTmgsGV4gEIhiicQW6pfloJ9jdXyfDOnY0mBnj5u5KhuhbR3hqdhSbcNqdYqbGXbTFgW6F9sAN2/bk3jQrXde1wm9Y8t36wLV1TE0fKWb4JbTFr7r7sT28EI3Gk+uEtqaCF4CRFxFCIwtJ8DlsI2lVUawV+/+ILXMyYaTK4RmOgME8X40dnE5wPSSTSytb0qQvgyfra864ZfjhMYSwXMJEdZh6/UEJzJQiTqR1DTWUksXN3bcbbf/jhLalghfSwW428GuObvxcFUfvuY8JdH0VXa2hB0hNNoOvpH+8Gog5GpXEapIY/R1bDDNWRyJv2+H+7YTuiLZOFIk4joslbPscHBY6KD0Q+wfnrcklNxRan5t7eSObmwY4wPfi5xMk7QQMg7HG9pXxkMRkymHiNtWQle2n3O8EBixGRWeNsQKDzCIAO2TZPmillByo8EEQ8RsIbS1ffJY8Nd0eHNUZEievR1AoV+m0tzmUHKLFUdLrnLv2jz5GBKo2cTJtAJ/jjQEqggR12P125gjtmhQSYSy6R++6tr12LF+VlFLXMAwAviOWiMKwvNsYN9wosOCJRE6sr7uQTR+nlmjXN4AAgRG+XxkQ6xz6lcMSKsilgltTYaX4XvmT1RN/MIJBE4i1Ld+4R8n+40qt0RorCN8Pr6a3GbUCJezjgC2TRpOmVRjuIvQdCsXOw7qfSDuxNJ5rHU3eUqzCMiSfElzOPHXYunMEkrakuGNSObMYooLxYvEDwFxRCER2+MkmoIB6VBGb7ntW8kc9vt+lqbSGcuCyV2F0vsKRerjWjtD12GLtiQymc6TxzTC3FOievWO3r+17yV4/q1Bm3r7aXkgQzYjuspXo/phVzhTqLWvGjBxgSXvGKwZH8Ek5+MP+c19GH6G4nPza/jcvCu3GuuhDLRDqU+hP92bpSRfOBPKF5cvPEtxjpv3DrwMf9j+fdj8biwr1q7wLKUl3LA3itZE5JpCKgwTSkT4PZZO2+tJs6CxzFhJUwiEiooT4A42Zzmfz4YIbY2HfoitrQvyKeHh7iHAqt4qgdyTz2JRQllvEBHIinwKeLj7CGDh+lGsM9KQy3JRQmvH1V2Prdqv50rMw8qHAKG0LZf1goRG2yfVgkCW50rIw8qLAOtwiCUi8/ReFCS0xld3LdbZdfpE/N4bCOCKg9/oPclL6KK1DdX4L1iiT8DvPYQAgbNXJoKztR7lJbR+vO8yfO8ZdhOiteBUwrVIhEVaP/MSKlABl/Txw/MIEJihHTfNSWhrRziMi4gmeT4z3EFEgBCfD36hQJGTUPCRnyoC/Ox9BCiQS1l/AfN0CKGxTWfUEArzvZ8N7qGCAHsTqa2vm8vuhxAqjBj9PaxuaxVhfq4YBBYwT4cQimtRLqqYLHBHVQRwJGwOfmDrqCxCM3NXKJ2jSvGLykEAa9Ua8YRpWYR+a2JNA3YmjKycXHBPtQgIIpmZRSj4YIZWgF9XHAIzsgml5LyKywJ3WIMAOVUllK3pJIRO1sTyywpEQCV0hBjCDz6R6grMA3dZg4BKqEjIdzTh/LJCEVAJlYHyvtsKJVHrtkoozhvihGqRqdBrlVCg5KQKzQN3W4OASii2cE/UhA+rS1EIQLV/FC7PqMnKt13hWUodvskshWDf3ytXC9csaAwPK2kK4XjymKlwzRhct6w77ArXqXX0NkNoVVWgbBPBzILG0LCSxlEUPaQ8Q6gsiHVq3euCc8oaFBdMqSb6pSNrZ8ptX3XKgQscGwVY2RmeKQLZ5IB+rtJlBDIFk8ikymW73JxDCGSqXCrIOB/FvUq33Atuy23fIS4zajOEChRnEWUqXydNHdGtXXDLnmdsZbXRxbZMi5U02gW3WvtW9JVq/wgS9l9liiXuZNBvv2pjGq2s9bSSppA3ZvWZlS9k2+64wWeoIAzYrZjrKw8Cgw/ONFTcpm3lgcv7VjOEyv7UAe+7yj00gsAgoYf69xkR5jLeRyBD6LIZOz6jlPZ4313uYTEEBp+hTIqQ7mLCPN77CBwhlNL3vO8u97AYAiqhOJW+q5gwj/c+AiqhuJUTJ9T7fBX1UCVUkuC1otJcwPMIqIQujcT/g58E5B0MnqessIMqoShGsY9+W2FxHutlBNgOiFpC8Rbaveww960oAjuyCaV0c9EkXMC7CCB/WYS2hBP/QG8/8q7H3LOCCEhkUxahKIxbW9JnCybikd5EgNKPt30U79QTCjLA0970mHtVEAFK1rON24cQemgg/iKW0r0FE/NIzyEgyzSzY8QQQqNNkMYpKY97zmPuUF4EcEeB7uZIPPOGMoRQlkqSyV/ypuYRnkMACyDjC3kF/ExGjmNZJP56a2c4jh324RzRhoJG+EfDJaffr8omdz0Eb+57Qb0fzhf1I0+DC755kwrB1t2PQdfeDeq9uQuakon0gJImJ6GZSAr34dROy4QKuI3E0VXHK3YgIPDV/goYPqEqC5uqEjYlwvm3T+Gm7HsU3TmrXBa5bU/8WXyHeVcR5GePIiBLWd+ez0soawLjh+rv8Gg2uFsMAUo36Ddiz0sok+9Jxx/FuUb/ZddOHVbWelpJU8h/s/rMyheyXUqcTOVb9enzP0NRkr3CxJLwa1wl8YQ+oV33VtZ6WklTyF+z+szKF7JtOY7SZ3Cf7iGjYwVLKDPWHIw/iR0N2y0b5gkdQICmcELC0lyKC5bQwwmoLNFFoggJNjUwlxIjYazVqxzKglt8LVKCHD8PSH2qDZmmoS/1mXrv9AUWCNAuOC7VHvYK/a4lkng7lx4jhAKOwnS2JiMPI50/z6XESNixNd9Qxd77ZHA3QDXA5Yt3DiSB/SrxwDbN+73pAzfn871olaskTFGphffxKmiU74x12nXRpq6D+TwwTOjyUPITJHRhPkU83HkEsG/vscXB+HOFLBmqchUFzY2JZ3HL5ofxUfozJczoeeLYaTBh1DlGxb/UcqynyPRB6a50X+/1xdKZIpQp60nt/1VtYGwjFv2JxZRr4/1iNbAfP8wjgD12aQD5UrYGqVhqw1WuoojV31KaXoQNt7z1uCLLz3YhILcsCSYNteJMl1DmIs7h/XdbInIVELom36uMTCXYf6jbrhx9qfV8kc6/8A9btWuWBBN5d/TVA1PSi2BbZxjHgMhteqX83iYEKGztSXU3RZv+94VRjSURyoy0dkb+hEquNGqQyxlEAFcD9st0yo3hxMcGU2TETD9D9coPDnQsxF7/Z/Th/L4kBD6QJZhulkxmsWRCWQd+z579F+M7Kv+0XEkcHk6M0zHpwMB0nCNkaZSr5CpXyQPbpqk2cOJTbMsmJYyfTSJA6Yc4P2j6knDiXyZTquIll1BFE3twv/VG74V4v04J42fjCGAvULdE0qFSyGTWjgyBGLedV3LH8x/KU0/sfjpw8oRRWFKn5BXkEToE6Gv9Ep22PNS5Sxdh+ta2KldvOZYMXSeAcC+OkNn6p9HbqfR7fM98jvZ++uPmWf888kHfEjJlW5Wr96E5mFiN46gz+QiNHpnBe8RFxnHNWw5uiV9oF5lMs2MlVMnGbS80jK+u8q/BDv1GJWy4n7Fvdh/2pF3eEkputBsLx6vDFx/d3XPM7O5Hvnr0BPaByBD+hxy3aTdIturDmXpyqm92S2TrTlv1HlbmeAnVOr0yHjoL97h8CBtMZ2rDh8U1fr9CJnILDkE+6GR+XSWUZWT+WhCnjI/cgKM1t2CFPyz2+sZXkif7+75YdNP0bR85SSbT7TqhSoZuj4fGHSWQ31ICV2KJdaxxptgrz5n+nVJ5sdGhLzt8LBuhivN3dYRP94twM/61cDN367MKFX2eOFPows0Bb8UpsKyTBQuoe0fZCVWyGmufeprg9y1HYucjsX4lvJLO+CqyHSS6Ent72Cp4V4lUcPIMoYpDK5KN9QIVfykQwAF0Mk4J9+wZp9ziY+MZZG9Vc2PHK+X203OEKoCwxtM59eFZ+HC9AkvsHKyMa5S48p+xfwfgFZDJEymQnmQzIsvv06AHniVUC9CitQ3V44/3zcK9QOZhRTaDEHKCNt6Va5xDhV9a60ASN2An+nrtmkxX7Bs0UhGE6vPS2t4wEfy+IBsAoISciyRPxBJsaX6UXrdyjyVwN16/isNZW9HGy+90Hdz6wNU7Ukq8V8//B2posSq2NuAXAAAAAElFTkSuQmCC;fontColor=#417CB9;fontSize=8;spacingTop=-6;" parent="W6fNKKuVKiUhsK_AsJEE-5" vertex="1">
                    <mxGeometry x="220" y="39.99860465116285" width="40" height="40" as="geometry"/>
                </mxCell>
                <mxCell id="W6fNKKuVKiUhsK_AsJEE-200" value="CONTAINERIZED&lt;br style=&quot;font-size: 8px;&quot;&gt;APPS" style="aspect=fixed;perimeter=ellipsePerimeter;html=1;align=center;shadow=0;dashed=0;fontColor=#4277BB;labelBackgroundColor=none;fontSize=8;spacingTop=3;image;image=img/lib/ibm/applications/microservice.svg;strokeColor=#000000;fillColor=#00882B;" parent="W6fNKKuVKiUhsK_AsJEE-5" vertex="1">
                    <mxGeometry x="270" y="40" width="54.8" height="40" as="geometry"/>
                </mxCell>
                <mxCell id="W6fNKKuVKiUhsK_AsJEE-201" value="NETWORK&lt;br style=&quot;font-size: 8px;&quot;&gt;LB" style="aspect=fixed;perimeter=ellipsePerimeter;html=1;align=center;shadow=0;dashed=0;fontColor=#4277BB;labelBackgroundColor=#ffffff;fontSize=8;spacingTop=3;image;image=img/lib/ibm/vpc/LoadBalancerPool.svg;strokeColor=#000000;fillColor=none;textOpacity=90;" parent="W6fNKKuVKiUhsK_AsJEE-5" vertex="1">
                    <mxGeometry x="20" y="40" width="40" height="40" as="geometry"/>
                </mxCell>
                <mxCell id="W6fNKKuVKiUhsK_AsJEE-202" value="OPENSHIFT&lt;br style=&quot;font-size: 8px&quot;&gt;ROUTER" style="aspect=fixed;perimeter=ellipsePerimeter;html=1;align=center;shadow=0;dashed=0;fontColor=#4277BB;labelBackgroundColor=#ffffff;fontSize=8;spacingTop=3;image;image=img/lib/ibm/vpc/Router.svg;strokeColor=#000000;fillColor=none;" parent="W6fNKKuVKiUhsK_AsJEE-5" vertex="1">
                    <mxGeometry x="70" y="40" width="40" height="40" as="geometry"/>
                </mxCell>
                <mxCell id="W6fNKKuVKiUhsK_AsJEE-203" value="INGRESS&lt;br style=&quot;font-size: 8px;&quot;&gt;ALB" style="aspect=fixed;perimeter=ellipsePerimeter;html=1;align=center;shadow=0;dashed=0;fontColor=#4277BB;labelBackgroundColor=#ffffff;fontSize=8;spacingTop=3;image;image=img/lib/ibm/vpc/LoadBalancer.svg;strokeColor=#000000;fillColor=none;" parent="W6fNKKuVKiUhsK_AsJEE-5" vertex="1">
                    <mxGeometry x="120" y="40" width="40" height="40" as="geometry"/>
                </mxCell>
                <mxCell id="W6fNKKuVKiUhsK_AsJEE-204" value="" style="rounded=0;whiteSpace=wrap;html=1;dashed=1;labelBackgroundColor=none;fontSize=8;fontColor=#000000;strokeColor=none;opacity=50;" parent="W6fNKKuVKiUhsK_AsJEE-5" vertex="1">
                    <mxGeometry x="10" y="30" width="150" height="80" as="geometry"/>
                </mxCell>
                <mxCell id="W6fNKKuVKiUhsK_AsJEE-205" value="Availability Zone 2" style="shape=mxgraph.ibm.box;prType=zone;fontStyle=0;verticalAlign=top;align=left;spacingLeft=32;spacingTop=4;rounded=0;whiteSpace=wrap;html=1;strokeColor=#919191;strokeWidth=1;dashed=1;container=1;spacing=-4;collapsible=0;expand=0;recursiveResize=0;fillColor=none;" parent="kz8PZC0MePa_d6amyWjo-10" vertex="1">
                    <mxGeometry x="70" y="151.71000000000004" width="340" height="120" as="geometry"/>
                </mxCell>
                <mxCell id="W6fNKKuVKiUhsK_AsJEE-206" value="WORKER&#10;NODE 1" style="shape=image;verticalLabelPosition=bottom;verticalAlign=middle;imageAspect=0;image=data:image/png,iVBORw0KGgoAAAANSUhEUgAAAHQAAAB2CAYAAAAZUrcsAAAAAXNSR0IArs4c6QAAAAlwSFlzAAAXEgAAFxIBZ5/SUgAADdNJREFUeAHtXQuQFMUZ/ntmd8/jDgUOoxxRTEwiBrWiaOS4fXjyNEBVNIFo1BhNCmPUMhTcAZqKq/EFe+eDECvxkcRXGUBLtCwCBXre7p5CEENFL4nP5BCxRMDHcZx3uzOdv/eYYXZuHzOzM7OzXk/V1sx0//3/f3/fdk9PP6YB+MER4Ah4FwHiXdds84xE20+qgr7jAoEA9Q+IAxIcFAe6+nb0r1sAkm1WPKKo4gmNrp0UOOq4ulNEQicRAU4FIBMGfzAOMa7DDI4GAmJuvOnnlMJ+jNtLCNklU9pNKHlbpnLXIamnK9q089Pc6bwbWnGE3pkIjvZTMg1EEgQKU5CsMwmQgEMQv4M2tgKRX5bSZEtLJP62Q3ZsU1sRhK7oCJ8qCvADLIHzKMDZSKBgGwImFKHtbqD0b5TKT/emky9FmyBtIrkrop4l9PZ4aFyVKFyOAF6B1eG3XUHDlBF6QKZkDUnDn5ec17HdVFIHhT1H6IpkpMkH9AZ8Ds7N/+xzEBELqrHkvkFBXrXng/Tj9yx4pc+CCtuSeILQaBSEkdPD8xGYG7E0nmFb7lxWhP7vpzJd3Zv+/N5yNajKTmgsGV4gEIhiicQW6pfloJ9jdXyfDOnY0mBnj5u5KhuhbR3hqdhSbcNqdYqbGXbTFgW6F9sAN2/bk3jQrXde1wm9Y8t36wLV1TE0fKWb4JbTFr7r7sT28EI3Gk+uEtqaCF4CRFxFCIwtJ8DlsI2lVUawV+/+ILXMyYaTK4RmOgME8X40dnE5wPSSTSytb0qQvgyfra864ZfjhMYSwXMJEdZh6/UEJzJQiTqR1DTWUksXN3bcbbf/jhLalghfSwW428GuObvxcFUfvuY8JdH0VXa2hB0hNNoOvpH+8Gog5GpXEapIY/R1bDDNWRyJv2+H+7YTuiLZOFIk4joslbPscHBY6KD0Q+wfnrcklNxRan5t7eSObmwY4wPfi5xMk7QQMg7HG9pXxkMRkymHiNtWQle2n3O8EBixGRWeNsQKDzCIAO2TZPmillByo8EEQ8RsIbS1ffJY8Nd0eHNUZEievR1AoV+m0tzmUHKLFUdLrnLv2jz5GBKo2cTJtAJ/jjQEqggR12P125gjtmhQSYSy6R++6tr12LF+VlFLXMAwAviOWiMKwvNsYN9wosOCJRE6sr7uQTR+nlmjXN4AAgRG+XxkQ6xz6lcMSKsilgltTYaX4XvmT1RN/MIJBE4i1Ld+4R8n+40qt0RorCN8Pr6a3GbUCJezjgC2TRpOmVRjuIvQdCsXOw7qfSDuxNJ5rHU3eUqzCMiSfElzOPHXYunMEkrakuGNSObMYooLxYvEDwFxRCER2+MkmoIB6VBGb7ntW8kc9vt+lqbSGcuCyV2F0vsKRerjWjtD12GLtiQymc6TxzTC3FOievWO3r+17yV4/q1Bm3r7aXkgQzYjuspXo/phVzhTqLWvGjBxgSXvGKwZH8Ek5+MP+c19GH6G4nPza/jcvCu3GuuhDLRDqU+hP92bpSRfOBPKF5cvPEtxjpv3DrwMf9j+fdj8biwr1q7wLKUl3LA3itZE5JpCKgwTSkT4PZZO2+tJs6CxzFhJUwiEiooT4A42Zzmfz4YIbY2HfoitrQvyKeHh7iHAqt4qgdyTz2JRQllvEBHIinwKeLj7CGDh+lGsM9KQy3JRQmvH1V2Prdqv50rMw8qHAKG0LZf1goRG2yfVgkCW50rIw8qLAOtwiCUi8/ReFCS0xld3LdbZdfpE/N4bCOCKg9/oPclL6KK1DdX4L1iiT8DvPYQAgbNXJoKztR7lJbR+vO8yfO8ZdhOiteBUwrVIhEVaP/MSKlABl/Txw/MIEJihHTfNSWhrRziMi4gmeT4z3EFEgBCfD36hQJGTUPCRnyoC/Ox9BCiQS1l/AfN0CKGxTWfUEArzvZ8N7qGCAHsTqa2vm8vuhxAqjBj9PaxuaxVhfq4YBBYwT4cQimtRLqqYLHBHVQRwJGwOfmDrqCxCM3NXKJ2jSvGLykEAa9Ua8YRpWYR+a2JNA3YmjKycXHBPtQgIIpmZRSj4YIZWgF9XHAIzsgml5LyKywJ3WIMAOVUllK3pJIRO1sTyywpEQCV0hBjCDz6R6grMA3dZg4BKqEjIdzTh/LJCEVAJlYHyvtsKJVHrtkoozhvihGqRqdBrlVCg5KQKzQN3W4OASii2cE/UhA+rS1EIQLV/FC7PqMnKt13hWUodvskshWDf3ytXC9csaAwPK2kK4XjymKlwzRhct6w77ArXqXX0NkNoVVWgbBPBzILG0LCSxlEUPaQ8Q6gsiHVq3euCc8oaFBdMqSb6pSNrZ8ptX3XKgQscGwVY2RmeKQLZ5IB+rtJlBDIFk8ikymW73JxDCGSqXCrIOB/FvUq33Atuy23fIS4zajOEChRnEWUqXydNHdGtXXDLnmdsZbXRxbZMi5U02gW3WvtW9JVq/wgS9l9liiXuZNBvv2pjGq2s9bSSppA3ZvWZlS9k2+64wWeoIAzYrZjrKw8Cgw/ONFTcpm3lgcv7VjOEyv7UAe+7yj00gsAgoYf69xkR5jLeRyBD6LIZOz6jlPZ4313uYTEEBp+hTIqQ7mLCPN77CBwhlNL3vO8u97AYAiqhOJW+q5gwj/c+AiqhuJUTJ9T7fBX1UCVUkuC1otJcwPMIqIQujcT/g58E5B0MnqessIMqoShGsY9+W2FxHutlBNgOiFpC8Rbaveww960oAjuyCaV0c9EkXMC7CCB/WYS2hBP/QG8/8q7H3LOCCEhkUxahKIxbW9JnCybikd5EgNKPt30U79QTCjLA0970mHtVEAFK1rON24cQemgg/iKW0r0FE/NIzyEgyzSzY8QQQqNNkMYpKY97zmPuUF4EcEeB7uZIPPOGMoRQlkqSyV/ypuYRnkMACyDjC3kF/ExGjmNZJP56a2c4jh324RzRhoJG+EfDJaffr8omdz0Eb+57Qb0fzhf1I0+DC755kwrB1t2PQdfeDeq9uQuakon0gJImJ6GZSAr34dROy4QKuI3E0VXHK3YgIPDV/goYPqEqC5uqEjYlwvm3T+Gm7HsU3TmrXBa5bU/8WXyHeVcR5GePIiBLWd+ez0soawLjh+rv8Gg2uFsMAUo36Ddiz0sok+9Jxx/FuUb/ZddOHVbWelpJU8h/s/rMyheyXUqcTOVb9enzP0NRkr3CxJLwa1wl8YQ+oV33VtZ6WklTyF+z+szKF7JtOY7SZ3Cf7iGjYwVLKDPWHIw/iR0N2y0b5gkdQICmcELC0lyKC5bQwwmoLNFFoggJNjUwlxIjYazVqxzKglt8LVKCHD8PSH2qDZmmoS/1mXrv9AUWCNAuOC7VHvYK/a4lkng7lx4jhAKOwnS2JiMPI50/z6XESNixNd9Qxd77ZHA3QDXA5Yt3DiSB/SrxwDbN+73pAzfn871olaskTFGphffxKmiU74x12nXRpq6D+TwwTOjyUPITJHRhPkU83HkEsG/vscXB+HOFLBmqchUFzY2JZ3HL5ofxUfozJczoeeLYaTBh1DlGxb/UcqynyPRB6a50X+/1xdKZIpQp60nt/1VtYGwjFv2JxZRr4/1iNbAfP8wjgD12aQD5UrYGqVhqw1WuoojV31KaXoQNt7z1uCLLz3YhILcsCSYNteJMl1DmIs7h/XdbInIVELom36uMTCXYf6jbrhx9qfV8kc6/8A9btWuWBBN5d/TVA1PSi2BbZxjHgMhteqX83iYEKGztSXU3RZv+94VRjSURyoy0dkb+hEquNGqQyxlEAFcD9st0yo3hxMcGU2TETD9D9coPDnQsxF7/Z/Th/L4kBD6QJZhulkxmsWRCWQd+z579F+M7Kv+0XEkcHk6M0zHpwMB0nCNkaZSr5CpXyQPbpqk2cOJTbMsmJYyfTSJA6Yc4P2j6knDiXyZTquIll1BFE3twv/VG74V4v04J42fjCGAvULdE0qFSyGTWjgyBGLedV3LH8x/KU0/sfjpw8oRRWFKn5BXkEToE6Gv9Ep22PNS5Sxdh+ta2KldvOZYMXSeAcC+OkNn6p9HbqfR7fM98jvZ++uPmWf888kHfEjJlW5Wr96E5mFiN46gz+QiNHpnBe8RFxnHNWw5uiV9oF5lMs2MlVMnGbS80jK+u8q/BDv1GJWy4n7Fvdh/2pF3eEkputBsLx6vDFx/d3XPM7O5Hvnr0BPaByBD+hxy3aTdIturDmXpyqm92S2TrTlv1HlbmeAnVOr0yHjoL97h8CBtMZ2rDh8U1fr9CJnILDkE+6GR+XSWUZWT+WhCnjI/cgKM1t2CFPyz2+sZXkif7+75YdNP0bR85SSbT7TqhSoZuj4fGHSWQ31ICV2KJdaxxptgrz5n+nVJ5sdGhLzt8LBuhivN3dYRP94twM/61cDN367MKFX2eOFPows0Bb8UpsKyTBQuoe0fZCVWyGmufeprg9y1HYucjsX4lvJLO+CqyHSS6Ent72Cp4V4lUcPIMoYpDK5KN9QIVfykQwAF0Mk4J9+wZp9ziY+MZZG9Vc2PHK+X203OEKoCwxtM59eFZ+HC9AkvsHKyMa5S48p+xfwfgFZDJEymQnmQzIsvv06AHniVUC9CitQ3V44/3zcK9QOZhRTaDEHKCNt6Va5xDhV9a60ASN2An+nrtmkxX7Bs0UhGE6vPS2t4wEfy+IBsAoISciyRPxBJsaX6UXrdyjyVwN16/isNZW9HGy+90Hdz6wNU7Ukq8V8//B2posSq2NuAXAAAAAElFTkSuQmCC;fontColor=#417CB9;fontSize=8;spacingTop=-6;aspect=fixed;" parent="W6fNKKuVKiUhsK_AsJEE-205" vertex="1">
                    <mxGeometry x="170" y="39.99860465116285" width="40" height="40" as="geometry"/>
                </mxCell>
                <mxCell id="W6fNKKuVKiUhsK_AsJEE-207" value="WORKER&#10;NODE 2" style="shape=image;verticalLabelPosition=bottom;verticalAlign=middle;imageAspect=0;image=data:image/png,iVBORw0KGgoAAAANSUhEUgAAAHQAAAB2CAYAAAAZUrcsAAAAAXNSR0IArs4c6QAAAAlwSFlzAAAXEgAAFxIBZ5/SUgAADdNJREFUeAHtXQuQFMUZ/ntmd8/jDgUOoxxRTEwiBrWiaOS4fXjyNEBVNIFo1BhNCmPUMhTcAZqKq/EFe+eDECvxkcRXGUBLtCwCBXre7p5CEENFL4nP5BCxRMDHcZx3uzOdv/eYYXZuHzOzM7OzXk/V1sx0//3/f3/fdk9PP6YB+MER4Ah4FwHiXdds84xE20+qgr7jAoEA9Q+IAxIcFAe6+nb0r1sAkm1WPKKo4gmNrp0UOOq4ulNEQicRAU4FIBMGfzAOMa7DDI4GAmJuvOnnlMJ+jNtLCNklU9pNKHlbpnLXIamnK9q089Pc6bwbWnGE3pkIjvZTMg1EEgQKU5CsMwmQgEMQv4M2tgKRX5bSZEtLJP62Q3ZsU1sRhK7oCJ8qCvADLIHzKMDZSKBgGwImFKHtbqD0b5TKT/emky9FmyBtIrkrop4l9PZ4aFyVKFyOAF6B1eG3XUHDlBF6QKZkDUnDn5ec17HdVFIHhT1H6IpkpMkH9AZ8Ds7N/+xzEBELqrHkvkFBXrXng/Tj9yx4pc+CCtuSeILQaBSEkdPD8xGYG7E0nmFb7lxWhP7vpzJd3Zv+/N5yNajKTmgsGV4gEIhiicQW6pfloJ9jdXyfDOnY0mBnj5u5KhuhbR3hqdhSbcNqdYqbGXbTFgW6F9sAN2/bk3jQrXde1wm9Y8t36wLV1TE0fKWb4JbTFr7r7sT28EI3Gk+uEtqaCF4CRFxFCIwtJ8DlsI2lVUawV+/+ILXMyYaTK4RmOgME8X40dnE5wPSSTSytb0qQvgyfra864ZfjhMYSwXMJEdZh6/UEJzJQiTqR1DTWUksXN3bcbbf/jhLalghfSwW428GuObvxcFUfvuY8JdH0VXa2hB0hNNoOvpH+8Gog5GpXEapIY/R1bDDNWRyJv2+H+7YTuiLZOFIk4joslbPscHBY6KD0Q+wfnrcklNxRan5t7eSObmwY4wPfi5xMk7QQMg7HG9pXxkMRkymHiNtWQle2n3O8EBixGRWeNsQKDzCIAO2TZPmillByo8EEQ8RsIbS1ffJY8Nd0eHNUZEievR1AoV+m0tzmUHKLFUdLrnLv2jz5GBKo2cTJtAJ/jjQEqggR12P125gjtmhQSYSy6R++6tr12LF+VlFLXMAwAviOWiMKwvNsYN9wosOCJRE6sr7uQTR+nlmjXN4AAgRG+XxkQ6xz6lcMSKsilgltTYaX4XvmT1RN/MIJBE4i1Ld+4R8n+40qt0RorCN8Pr6a3GbUCJezjgC2TRpOmVRjuIvQdCsXOw7qfSDuxNJ5rHU3eUqzCMiSfElzOPHXYunMEkrakuGNSObMYooLxYvEDwFxRCER2+MkmoIB6VBGb7ntW8kc9vt+lqbSGcuCyV2F0vsKRerjWjtD12GLtiQymc6TxzTC3FOievWO3r+17yV4/q1Bm3r7aXkgQzYjuspXo/phVzhTqLWvGjBxgSXvGKwZH8Ek5+MP+c19GH6G4nPza/jcvCu3GuuhDLRDqU+hP92bpSRfOBPKF5cvPEtxjpv3DrwMf9j+fdj8biwr1q7wLKUl3LA3itZE5JpCKgwTSkT4PZZO2+tJs6CxzFhJUwiEiooT4A42Zzmfz4YIbY2HfoitrQvyKeHh7iHAqt4qgdyTz2JRQllvEBHIinwKeLj7CGDh+lGsM9KQy3JRQmvH1V2Prdqv50rMw8qHAKG0LZf1goRG2yfVgkCW50rIw8qLAOtwiCUi8/ReFCS0xld3LdbZdfpE/N4bCOCKg9/oPclL6KK1DdX4L1iiT8DvPYQAgbNXJoKztR7lJbR+vO8yfO8ZdhOiteBUwrVIhEVaP/MSKlABl/Txw/MIEJihHTfNSWhrRziMi4gmeT4z3EFEgBCfD36hQJGTUPCRnyoC/Ox9BCiQS1l/AfN0CKGxTWfUEArzvZ8N7qGCAHsTqa2vm8vuhxAqjBj9PaxuaxVhfq4YBBYwT4cQimtRLqqYLHBHVQRwJGwOfmDrqCxCM3NXKJ2jSvGLykEAa9Ua8YRpWYR+a2JNA3YmjKycXHBPtQgIIpmZRSj4YIZWgF9XHAIzsgml5LyKywJ3WIMAOVUllK3pJIRO1sTyywpEQCV0hBjCDz6R6grMA3dZg4BKqEjIdzTh/LJCEVAJlYHyvtsKJVHrtkoozhvihGqRqdBrlVCg5KQKzQN3W4OASii2cE/UhA+rS1EIQLV/FC7PqMnKt13hWUodvskshWDf3ytXC9csaAwPK2kK4XjymKlwzRhct6w77ArXqXX0NkNoVVWgbBPBzILG0LCSxlEUPaQ8Q6gsiHVq3euCc8oaFBdMqSb6pSNrZ8ptX3XKgQscGwVY2RmeKQLZ5IB+rtJlBDIFk8ikymW73JxDCGSqXCrIOB/FvUq33Atuy23fIS4zajOEChRnEWUqXydNHdGtXXDLnmdsZbXRxbZMi5U02gW3WvtW9JVq/wgS9l9liiXuZNBvv2pjGq2s9bSSppA3ZvWZlS9k2+64wWeoIAzYrZjrKw8Cgw/ONFTcpm3lgcv7VjOEyv7UAe+7yj00gsAgoYf69xkR5jLeRyBD6LIZOz6jlPZ4313uYTEEBp+hTIqQ7mLCPN77CBwhlNL3vO8u97AYAiqhOJW+q5gwj/c+AiqhuJUTJ9T7fBX1UCVUkuC1otJcwPMIqIQujcT/g58E5B0MnqessIMqoShGsY9+W2FxHutlBNgOiFpC8Rbaveww960oAjuyCaV0c9EkXMC7CCB/WYS2hBP/QG8/8q7H3LOCCEhkUxahKIxbW9JnCybikd5EgNKPt30U79QTCjLA0970mHtVEAFK1rON24cQemgg/iKW0r0FE/NIzyEgyzSzY8QQQqNNkMYpKY97zmPuUF4EcEeB7uZIPPOGMoRQlkqSyV/ypuYRnkMACyDjC3kF/ExGjmNZJP56a2c4jh324RzRhoJG+EfDJaffr8omdz0Eb+57Qb0fzhf1I0+DC755kwrB1t2PQdfeDeq9uQuakon0gJImJ6GZSAr34dROy4QKuI3E0VXHK3YgIPDV/goYPqEqC5uqEjYlwvm3T+Gm7HsU3TmrXBa5bU/8WXyHeVcR5GePIiBLWd+ez0soawLjh+rv8Gg2uFsMAUo36Ddiz0sok+9Jxx/FuUb/ZddOHVbWelpJU8h/s/rMyheyXUqcTOVb9enzP0NRkr3CxJLwa1wl8YQ+oV33VtZ6WklTyF+z+szKF7JtOY7SZ3Cf7iGjYwVLKDPWHIw/iR0N2y0b5gkdQICmcELC0lyKC5bQwwmoLNFFoggJNjUwlxIjYazVqxzKglt8LVKCHD8PSH2qDZmmoS/1mXrv9AUWCNAuOC7VHvYK/a4lkng7lx4jhAKOwnS2JiMPI50/z6XESNixNd9Qxd77ZHA3QDXA5Yt3DiSB/SrxwDbN+73pAzfn871olaskTFGphffxKmiU74x12nXRpq6D+TwwTOjyUPITJHRhPkU83HkEsG/vscXB+HOFLBmqchUFzY2JZ3HL5ofxUfozJczoeeLYaTBh1DlGxb/UcqynyPRB6a50X+/1xdKZIpQp60nt/1VtYGwjFv2JxZRr4/1iNbAfP8wjgD12aQD5UrYGqVhqw1WuoojV31KaXoQNt7z1uCLLz3YhILcsCSYNteJMl1DmIs7h/XdbInIVELom36uMTCXYf6jbrhx9qfV8kc6/8A9btWuWBBN5d/TVA1PSi2BbZxjHgMhteqX83iYEKGztSXU3RZv+94VRjSURyoy0dkb+hEquNGqQyxlEAFcD9st0yo3hxMcGU2TETD9D9coPDnQsxF7/Z/Th/L4kBD6QJZhulkxmsWRCWQd+z579F+M7Kv+0XEkcHk6M0zHpwMB0nCNkaZSr5CpXyQPbpqk2cOJTbMsmJYyfTSJA6Yc4P2j6knDiXyZTquIll1BFE3twv/VG74V4v04J42fjCGAvULdE0qFSyGTWjgyBGLedV3LH8x/KU0/sfjpw8oRRWFKn5BXkEToE6Gv9Ep22PNS5Sxdh+ta2KldvOZYMXSeAcC+OkNn6p9HbqfR7fM98jvZ++uPmWf888kHfEjJlW5Wr96E5mFiN46gz+QiNHpnBe8RFxnHNWw5uiV9oF5lMs2MlVMnGbS80jK+u8q/BDv1GJWy4n7Fvdh/2pF3eEkputBsLx6vDFx/d3XPM7O5Hvnr0BPaByBD+hxy3aTdIturDmXpyqm92S2TrTlv1HlbmeAnVOr0yHjoL97h8CBtMZ2rDh8U1fr9CJnILDkE+6GR+XSWUZWT+WhCnjI/cgKM1t2CFPyz2+sZXkif7+75YdNP0bR85SSbT7TqhSoZuj4fGHSWQ31ICV2KJdaxxptgrz5n+nVJ5sdGhLzt8LBuhivN3dYRP94twM/61cDN367MKFX2eOFPows0Bb8UpsKyTBQuoe0fZCVWyGmufeprg9y1HYucjsX4lvJLO+CqyHSS6Ent72Cp4V4lUcPIMoYpDK5KN9QIVfykQwAF0Mk4J9+wZp9ziY+MZZG9Vc2PHK+X203OEKoCwxtM59eFZ+HC9AkvsHKyMa5S48p+xfwfgFZDJEymQnmQzIsvv06AHniVUC9CitQ3V44/3zcK9QOZhRTaDEHKCNt6Va5xDhV9a60ASN2An+nrtmkxX7Bs0UhGE6vPS2t4wEfy+IBsAoISciyRPxBJsaX6UXrdyjyVwN16/isNZW9HGy+90Hdz6wNU7Ukq8V8//B2posSq2NuAXAAAAAElFTkSuQmCC;fontColor=#417CB9;fontSize=8;spacingTop=-6;" parent="W6fNKKuVKiUhsK_AsJEE-205" vertex="1">
                    <mxGeometry x="220" y="39.99860465116285" width="40" height="40" as="geometry"/>
                </mxCell>
                <mxCell id="W6fNKKuVKiUhsK_AsJEE-208" value="CONTAINERIZED&lt;br style=&quot;font-size: 8px;&quot;&gt;APPS" style="aspect=fixed;perimeter=ellipsePerimeter;html=1;align=center;shadow=0;dashed=0;fontColor=#4277BB;labelBackgroundColor=none;fontSize=8;spacingTop=3;image;image=img/lib/ibm/applications/microservice.svg;strokeColor=#000000;fillColor=#00882B;" parent="W6fNKKuVKiUhsK_AsJEE-205" vertex="1">
                    <mxGeometry x="270" y="40" width="54.8" height="40" as="geometry"/>
                </mxCell>
                <mxCell id="W6fNKKuVKiUhsK_AsJEE-209" value="NETWORK&lt;br style=&quot;font-size: 8px;&quot;&gt;LB" style="aspect=fixed;perimeter=ellipsePerimeter;html=1;align=center;shadow=0;dashed=0;fontColor=#4277BB;labelBackgroundColor=#ffffff;fontSize=8;spacingTop=3;image;image=img/lib/ibm/vpc/LoadBalancerPool.svg;strokeColor=#000000;fillColor=none;textOpacity=90;" parent="W6fNKKuVKiUhsK_AsJEE-205" vertex="1">
                    <mxGeometry x="20" y="40" width="40" height="40" as="geometry"/>
                </mxCell>
                <mxCell id="W6fNKKuVKiUhsK_AsJEE-210" value="OPENSHIFT&lt;br style=&quot;font-size: 8px&quot;&gt;ROUTER" style="aspect=fixed;perimeter=ellipsePerimeter;html=1;align=center;shadow=0;dashed=0;fontColor=#4277BB;labelBackgroundColor=#ffffff;fontSize=8;spacingTop=3;image;image=img/lib/ibm/vpc/Router.svg;strokeColor=#000000;fillColor=none;" parent="W6fNKKuVKiUhsK_AsJEE-205" vertex="1">
                    <mxGeometry x="70" y="40" width="40" height="40" as="geometry"/>
                </mxCell>
                <mxCell id="W6fNKKuVKiUhsK_AsJEE-211" value="INGRESS&lt;br style=&quot;font-size: 8px;&quot;&gt;ALB" style="aspect=fixed;perimeter=ellipsePerimeter;html=1;align=center;shadow=0;dashed=0;fontColor=#4277BB;labelBackgroundColor=#ffffff;fontSize=8;spacingTop=3;image;image=img/lib/ibm/vpc/LoadBalancer.svg;strokeColor=#000000;fillColor=none;" parent="W6fNKKuVKiUhsK_AsJEE-205" vertex="1">
                    <mxGeometry x="120" y="40" width="40" height="40" as="geometry"/>
                </mxCell>
                <mxCell id="W6fNKKuVKiUhsK_AsJEE-212" value="" style="rounded=0;whiteSpace=wrap;html=1;dashed=1;labelBackgroundColor=none;fontSize=8;fontColor=#000000;strokeColor=none;opacity=50;" parent="W6fNKKuVKiUhsK_AsJEE-205" vertex="1">
                    <mxGeometry x="10" y="30" width="150" height="80" as="geometry"/>
                </mxCell>
                <mxCell id="W6fNKKuVKiUhsK_AsJEE-213" value="Availability Zone 3" style="shape=mxgraph.ibm.box;prType=zone;fontStyle=0;verticalAlign=top;align=left;spacingLeft=32;spacingTop=4;rounded=0;whiteSpace=wrap;html=1;strokeColor=#919191;strokeWidth=1;dashed=1;container=1;spacing=-4;collapsible=0;expand=0;recursiveResize=0;fillColor=none;" parent="kz8PZC0MePa_d6amyWjo-10" vertex="1">
                    <mxGeometry x="70" y="281.71000000000004" width="340" height="120" as="geometry"/>
                </mxCell>
                <mxCell id="W6fNKKuVKiUhsK_AsJEE-214" value="WORKER&#10;NODE 1" style="shape=image;verticalLabelPosition=bottom;verticalAlign=middle;imageAspect=0;image=data:image/png,iVBORw0KGgoAAAANSUhEUgAAAHQAAAB2CAYAAAAZUrcsAAAAAXNSR0IArs4c6QAAAAlwSFlzAAAXEgAAFxIBZ5/SUgAADdNJREFUeAHtXQuQFMUZ/ntmd8/jDgUOoxxRTEwiBrWiaOS4fXjyNEBVNIFo1BhNCmPUMhTcAZqKq/EFe+eDECvxkcRXGUBLtCwCBXre7p5CEENFL4nP5BCxRMDHcZx3uzOdv/eYYXZuHzOzM7OzXk/V1sx0//3/f3/fdk9PP6YB+MER4Ah4FwHiXdds84xE20+qgr7jAoEA9Q+IAxIcFAe6+nb0r1sAkm1WPKKo4gmNrp0UOOq4ulNEQicRAU4FIBMGfzAOMa7DDI4GAmJuvOnnlMJ+jNtLCNklU9pNKHlbpnLXIamnK9q089Pc6bwbWnGE3pkIjvZTMg1EEgQKU5CsMwmQgEMQv4M2tgKRX5bSZEtLJP62Q3ZsU1sRhK7oCJ8qCvADLIHzKMDZSKBgGwImFKHtbqD0b5TKT/emky9FmyBtIrkrop4l9PZ4aFyVKFyOAF6B1eG3XUHDlBF6QKZkDUnDn5ec17HdVFIHhT1H6IpkpMkH9AZ8Ds7N/+xzEBELqrHkvkFBXrXng/Tj9yx4pc+CCtuSeILQaBSEkdPD8xGYG7E0nmFb7lxWhP7vpzJd3Zv+/N5yNajKTmgsGV4gEIhiicQW6pfloJ9jdXyfDOnY0mBnj5u5KhuhbR3hqdhSbcNqdYqbGXbTFgW6F9sAN2/bk3jQrXde1wm9Y8t36wLV1TE0fKWb4JbTFr7r7sT28EI3Gk+uEtqaCF4CRFxFCIwtJ8DlsI2lVUawV+/+ILXMyYaTK4RmOgME8X40dnE5wPSSTSytb0qQvgyfra864ZfjhMYSwXMJEdZh6/UEJzJQiTqR1DTWUksXN3bcbbf/jhLalghfSwW428GuObvxcFUfvuY8JdH0VXa2hB0hNNoOvpH+8Gog5GpXEapIY/R1bDDNWRyJv2+H+7YTuiLZOFIk4joslbPscHBY6KD0Q+wfnrcklNxRan5t7eSObmwY4wPfi5xMk7QQMg7HG9pXxkMRkymHiNtWQle2n3O8EBixGRWeNsQKDzCIAO2TZPmillByo8EEQ8RsIbS1ffJY8Nd0eHNUZEievR1AoV+m0tzmUHKLFUdLrnLv2jz5GBKo2cTJtAJ/jjQEqggR12P125gjtmhQSYSy6R++6tr12LF+VlFLXMAwAviOWiMKwvNsYN9wosOCJRE6sr7uQTR+nlmjXN4AAgRG+XxkQ6xz6lcMSKsilgltTYaX4XvmT1RN/MIJBE4i1Ld+4R8n+40qt0RorCN8Pr6a3GbUCJezjgC2TRpOmVRjuIvQdCsXOw7qfSDuxNJ5rHU3eUqzCMiSfElzOPHXYunMEkrakuGNSObMYooLxYvEDwFxRCER2+MkmoIB6VBGb7ntW8kc9vt+lqbSGcuCyV2F0vsKRerjWjtD12GLtiQymc6TxzTC3FOievWO3r+17yV4/q1Bm3r7aXkgQzYjuspXo/phVzhTqLWvGjBxgSXvGKwZH8Ek5+MP+c19GH6G4nPza/jcvCu3GuuhDLRDqU+hP92bpSRfOBPKF5cvPEtxjpv3DrwMf9j+fdj8biwr1q7wLKUl3LA3itZE5JpCKgwTSkT4PZZO2+tJs6CxzFhJUwiEiooT4A42Zzmfz4YIbY2HfoitrQvyKeHh7iHAqt4qgdyTz2JRQllvEBHIinwKeLj7CGDh+lGsM9KQy3JRQmvH1V2Prdqv50rMw8qHAKG0LZf1goRG2yfVgkCW50rIw8qLAOtwiCUi8/ReFCS0xld3LdbZdfpE/N4bCOCKg9/oPclL6KK1DdX4L1iiT8DvPYQAgbNXJoKztR7lJbR+vO8yfO8ZdhOiteBUwrVIhEVaP/MSKlABl/Txw/MIEJihHTfNSWhrRziMi4gmeT4z3EFEgBCfD36hQJGTUPCRnyoC/Ox9BCiQS1l/AfN0CKGxTWfUEArzvZ8N7qGCAHsTqa2vm8vuhxAqjBj9PaxuaxVhfq4YBBYwT4cQimtRLqqYLHBHVQRwJGwOfmDrqCxCM3NXKJ2jSvGLykEAa9Ua8YRpWYR+a2JNA3YmjKycXHBPtQgIIpmZRSj4YIZWgF9XHAIzsgml5LyKywJ3WIMAOVUllK3pJIRO1sTyywpEQCV0hBjCDz6R6grMA3dZg4BKqEjIdzTh/LJCEVAJlYHyvtsKJVHrtkoozhvihGqRqdBrlVCg5KQKzQN3W4OASii2cE/UhA+rS1EIQLV/FC7PqMnKt13hWUodvskshWDf3ytXC9csaAwPK2kK4XjymKlwzRhct6w77ArXqXX0NkNoVVWgbBPBzILG0LCSxlEUPaQ8Q6gsiHVq3euCc8oaFBdMqSb6pSNrZ8ptX3XKgQscGwVY2RmeKQLZ5IB+rtJlBDIFk8ikymW73JxDCGSqXCrIOB/FvUq33Atuy23fIS4zajOEChRnEWUqXydNHdGtXXDLnmdsZbXRxbZMi5U02gW3WvtW9JVq/wgS9l9liiXuZNBvv2pjGq2s9bSSppA3ZvWZlS9k2+64wWeoIAzYrZjrKw8Cgw/ONFTcpm3lgcv7VjOEyv7UAe+7yj00gsAgoYf69xkR5jLeRyBD6LIZOz6jlPZ4313uYTEEBp+hTIqQ7mLCPN77CBwhlNL3vO8u97AYAiqhOJW+q5gwj/c+AiqhuJUTJ9T7fBX1UCVUkuC1otJcwPMIqIQujcT/g58E5B0MnqessIMqoShGsY9+W2FxHutlBNgOiFpC8Rbaveww960oAjuyCaV0c9EkXMC7CCB/WYS2hBP/QG8/8q7H3LOCCEhkUxahKIxbW9JnCybikd5EgNKPt30U79QTCjLA0970mHtVEAFK1rON24cQemgg/iKW0r0FE/NIzyEgyzSzY8QQQqNNkMYpKY97zmPuUF4EcEeB7uZIPPOGMoRQlkqSyV/ypuYRnkMACyDjC3kF/ExGjmNZJP56a2c4jh324RzRhoJG+EfDJaffr8omdz0Eb+57Qb0fzhf1I0+DC755kwrB1t2PQdfeDeq9uQuakon0gJImJ6GZSAr34dROy4QKuI3E0VXHK3YgIPDV/goYPqEqC5uqEjYlwvm3T+Gm7HsU3TmrXBa5bU/8WXyHeVcR5GePIiBLWd+ez0soawLjh+rv8Gg2uFsMAUo36Ddiz0sok+9Jxx/FuUb/ZddOHVbWelpJU8h/s/rMyheyXUqcTOVb9enzP0NRkr3CxJLwa1wl8YQ+oV33VtZ6WklTyF+z+szKF7JtOY7SZ3Cf7iGjYwVLKDPWHIw/iR0N2y0b5gkdQICmcELC0lyKC5bQwwmoLNFFoggJNjUwlxIjYazVqxzKglt8LVKCHD8PSH2qDZmmoS/1mXrv9AUWCNAuOC7VHvYK/a4lkng7lx4jhAKOwnS2JiMPI50/z6XESNixNd9Qxd77ZHA3QDXA5Yt3DiSB/SrxwDbN+73pAzfn871olaskTFGphffxKmiU74x12nXRpq6D+TwwTOjyUPITJHRhPkU83HkEsG/vscXB+HOFLBmqchUFzY2JZ3HL5ofxUfozJczoeeLYaTBh1DlGxb/UcqynyPRB6a50X+/1xdKZIpQp60nt/1VtYGwjFv2JxZRr4/1iNbAfP8wjgD12aQD5UrYGqVhqw1WuoojV31KaXoQNt7z1uCLLz3YhILcsCSYNteJMl1DmIs7h/XdbInIVELom36uMTCXYf6jbrhx9qfV8kc6/8A9btWuWBBN5d/TVA1PSi2BbZxjHgMhteqX83iYEKGztSXU3RZv+94VRjSURyoy0dkb+hEquNGqQyxlEAFcD9st0yo3hxMcGU2TETD9D9coPDnQsxF7/Z/Th/L4kBD6QJZhulkxmsWRCWQd+z579F+M7Kv+0XEkcHk6M0zHpwMB0nCNkaZSr5CpXyQPbpqk2cOJTbMsmJYyfTSJA6Yc4P2j6knDiXyZTquIll1BFE3twv/VG74V4v04J42fjCGAvULdE0qFSyGTWjgyBGLedV3LH8x/KU0/sfjpw8oRRWFKn5BXkEToE6Gv9Ep22PNS5Sxdh+ta2KldvOZYMXSeAcC+OkNn6p9HbqfR7fM98jvZ++uPmWf888kHfEjJlW5Wr96E5mFiN46gz+QiNHpnBe8RFxnHNWw5uiV9oF5lMs2MlVMnGbS80jK+u8q/BDv1GJWy4n7Fvdh/2pF3eEkputBsLx6vDFx/d3XPM7O5Hvnr0BPaByBD+hxy3aTdIturDmXpyqm92S2TrTlv1HlbmeAnVOr0yHjoL97h8CBtMZ2rDh8U1fr9CJnILDkE+6GR+XSWUZWT+WhCnjI/cgKM1t2CFPyz2+sZXkif7+75YdNP0bR85SSbT7TqhSoZuj4fGHSWQ31ICV2KJdaxxptgrz5n+nVJ5sdGhLzt8LBuhivN3dYRP94twM/61cDN367MKFX2eOFPows0Bb8UpsKyTBQuoe0fZCVWyGmufeprg9y1HYucjsX4lvJLO+CqyHSS6Ent72Cp4V4lUcPIMoYpDK5KN9QIVfykQwAF0Mk4J9+wZp9ziY+MZZG9Vc2PHK+X203OEKoCwxtM59eFZ+HC9AkvsHKyMa5S48p+xfwfgFZDJEymQnmQzIsvv06AHniVUC9CitQ3V44/3zcK9QOZhRTaDEHKCNt6Va5xDhV9a60ASN2An+nrtmkxX7Bs0UhGE6vPS2t4wEfy+IBsAoISciyRPxBJsaX6UXrdyjyVwN16/isNZW9HGy+90Hdz6wNU7Ukq8V8//B2posSq2NuAXAAAAAElFTkSuQmCC;fontColor=#417CB9;fontSize=8;spacingTop=-6;aspect=fixed;" parent="W6fNKKuVKiUhsK_AsJEE-213" vertex="1">
                    <mxGeometry x="170" y="39.99860465116285" width="40" height="40" as="geometry"/>
                </mxCell>
                <mxCell id="W6fNKKuVKiUhsK_AsJEE-215" value="WORKER&#10;NODE 2" style="shape=image;verticalLabelPosition=bottom;verticalAlign=middle;imageAspect=0;image=data:image/png,iVBORw0KGgoAAAANSUhEUgAAAHQAAAB2CAYAAAAZUrcsAAAAAXNSR0IArs4c6QAAAAlwSFlzAAAXEgAAFxIBZ5/SUgAADdNJREFUeAHtXQuQFMUZ/ntmd8/jDgUOoxxRTEwiBrWiaOS4fXjyNEBVNIFo1BhNCmPUMhTcAZqKq/EFe+eDECvxkcRXGUBLtCwCBXre7p5CEENFL4nP5BCxRMDHcZx3uzOdv/eYYXZuHzOzM7OzXk/V1sx0//3/f3/fdk9PP6YB+MER4Ah4FwHiXdds84xE20+qgr7jAoEA9Q+IAxIcFAe6+nb0r1sAkm1WPKKo4gmNrp0UOOq4ulNEQicRAU4FIBMGfzAOMa7DDI4GAmJuvOnnlMJ+jNtLCNklU9pNKHlbpnLXIamnK9q089Pc6bwbWnGE3pkIjvZTMg1EEgQKU5CsMwmQgEMQv4M2tgKRX5bSZEtLJP62Q3ZsU1sRhK7oCJ8qCvADLIHzKMDZSKBgGwImFKHtbqD0b5TKT/emky9FmyBtIrkrop4l9PZ4aFyVKFyOAF6B1eG3XUHDlBF6QKZkDUnDn5ec17HdVFIHhT1H6IpkpMkH9AZ8Ds7N/+xzEBELqrHkvkFBXrXng/Tj9yx4pc+CCtuSeILQaBSEkdPD8xGYG7E0nmFb7lxWhP7vpzJd3Zv+/N5yNajKTmgsGV4gEIhiicQW6pfloJ9jdXyfDOnY0mBnj5u5KhuhbR3hqdhSbcNqdYqbGXbTFgW6F9sAN2/bk3jQrXde1wm9Y8t36wLV1TE0fKWb4JbTFr7r7sT28EI3Gk+uEtqaCF4CRFxFCIwtJ8DlsI2lVUawV+/+ILXMyYaTK4RmOgME8X40dnE5wPSSTSytb0qQvgyfra864ZfjhMYSwXMJEdZh6/UEJzJQiTqR1DTWUksXN3bcbbf/jhLalghfSwW428GuObvxcFUfvuY8JdH0VXa2hB0hNNoOvpH+8Gog5GpXEapIY/R1bDDNWRyJv2+H+7YTuiLZOFIk4joslbPscHBY6KD0Q+wfnrcklNxRan5t7eSObmwY4wPfi5xMk7QQMg7HG9pXxkMRkymHiNtWQle2n3O8EBixGRWeNsQKDzCIAO2TZPmillByo8EEQ8RsIbS1ffJY8Nd0eHNUZEievR1AoV+m0tzmUHKLFUdLrnLv2jz5GBKo2cTJtAJ/jjQEqggR12P125gjtmhQSYSy6R++6tr12LF+VlFLXMAwAviOWiMKwvNsYN9wosOCJRE6sr7uQTR+nlmjXN4AAgRG+XxkQ6xz6lcMSKsilgltTYaX4XvmT1RN/MIJBE4i1Ld+4R8n+40qt0RorCN8Pr6a3GbUCJezjgC2TRpOmVRjuIvQdCsXOw7qfSDuxNJ5rHU3eUqzCMiSfElzOPHXYunMEkrakuGNSObMYooLxYvEDwFxRCER2+MkmoIB6VBGb7ntW8kc9vt+lqbSGcuCyV2F0vsKRerjWjtD12GLtiQymc6TxzTC3FOievWO3r+17yV4/q1Bm3r7aXkgQzYjuspXo/phVzhTqLWvGjBxgSXvGKwZH8Ek5+MP+c19GH6G4nPza/jcvCu3GuuhDLRDqU+hP92bpSRfOBPKF5cvPEtxjpv3DrwMf9j+fdj8biwr1q7wLKUl3LA3itZE5JpCKgwTSkT4PZZO2+tJs6CxzFhJUwiEiooT4A42Zzmfz4YIbY2HfoitrQvyKeHh7iHAqt4qgdyTz2JRQllvEBHIinwKeLj7CGDh+lGsM9KQy3JRQmvH1V2Prdqv50rMw8qHAKG0LZf1goRG2yfVgkCW50rIw8qLAOtwiCUi8/ReFCS0xld3LdbZdfpE/N4bCOCKg9/oPclL6KK1DdX4L1iiT8DvPYQAgbNXJoKztR7lJbR+vO8yfO8ZdhOiteBUwrVIhEVaP/MSKlABl/Txw/MIEJihHTfNSWhrRziMi4gmeT4z3EFEgBCfD36hQJGTUPCRnyoC/Ox9BCiQS1l/AfN0CKGxTWfUEArzvZ8N7qGCAHsTqa2vm8vuhxAqjBj9PaxuaxVhfq4YBBYwT4cQimtRLqqYLHBHVQRwJGwOfmDrqCxCM3NXKJ2jSvGLykEAa9Ua8YRpWYR+a2JNA3YmjKycXHBPtQgIIpmZRSj4YIZWgF9XHAIzsgml5LyKywJ3WIMAOVUllK3pJIRO1sTyywpEQCV0hBjCDz6R6grMA3dZg4BKqEjIdzTh/LJCEVAJlYHyvtsKJVHrtkoozhvihGqRqdBrlVCg5KQKzQN3W4OASii2cE/UhA+rS1EIQLV/FC7PqMnKt13hWUodvskshWDf3ytXC9csaAwPK2kK4XjymKlwzRhct6w77ArXqXX0NkNoVVWgbBPBzILG0LCSxlEUPaQ8Q6gsiHVq3euCc8oaFBdMqSb6pSNrZ8ptX3XKgQscGwVY2RmeKQLZ5IB+rtJlBDIFk8ikymW73JxDCGSqXCrIOB/FvUq33Atuy23fIS4zajOEChRnEWUqXydNHdGtXXDLnmdsZbXRxbZMi5U02gW3WvtW9JVq/wgS9l9liiXuZNBvv2pjGq2s9bSSppA3ZvWZlS9k2+64wWeoIAzYrZjrKw8Cgw/ONFTcpm3lgcv7VjOEyv7UAe+7yj00gsAgoYf69xkR5jLeRyBD6LIZOz6jlPZ4313uYTEEBp+hTIqQ7mLCPN77CBwhlNL3vO8u97AYAiqhOJW+q5gwj/c+AiqhuJUTJ9T7fBX1UCVUkuC1otJcwPMIqIQujcT/g58E5B0MnqessIMqoShGsY9+W2FxHutlBNgOiFpC8Rbaveww960oAjuyCaV0c9EkXMC7CCB/WYS2hBP/QG8/8q7H3LOCCEhkUxahKIxbW9JnCybikd5EgNKPt30U79QTCjLA0970mHtVEAFK1rON24cQemgg/iKW0r0FE/NIzyEgyzSzY8QQQqNNkMYpKY97zmPuUF4EcEeB7uZIPPOGMoRQlkqSyV/ypuYRnkMACyDjC3kF/ExGjmNZJP56a2c4jh324RzRhoJG+EfDJaffr8omdz0Eb+57Qb0fzhf1I0+DC755kwrB1t2PQdfeDeq9uQuakon0gJImJ6GZSAr34dROy4QKuI3E0VXHK3YgIPDV/goYPqEqC5uqEjYlwvm3T+Gm7HsU3TmrXBa5bU/8WXyHeVcR5GePIiBLWd+ez0soawLjh+rv8Gg2uFsMAUo36Ddiz0sok+9Jxx/FuUb/ZddOHVbWelpJU8h/s/rMyheyXUqcTOVb9enzP0NRkr3CxJLwa1wl8YQ+oV33VtZ6WklTyF+z+szKF7JtOY7SZ3Cf7iGjYwVLKDPWHIw/iR0N2y0b5gkdQICmcELC0lyKC5bQwwmoLNFFoggJNjUwlxIjYazVqxzKglt8LVKCHD8PSH2qDZmmoS/1mXrv9AUWCNAuOC7VHvYK/a4lkng7lx4jhAKOwnS2JiMPI50/z6XESNixNd9Qxd77ZHA3QDXA5Yt3DiSB/SrxwDbN+73pAzfn871olaskTFGphffxKmiU74x12nXRpq6D+TwwTOjyUPITJHRhPkU83HkEsG/vscXB+HOFLBmqchUFzY2JZ3HL5ofxUfozJczoeeLYaTBh1DlGxb/UcqynyPRB6a50X+/1xdKZIpQp60nt/1VtYGwjFv2JxZRr4/1iNbAfP8wjgD12aQD5UrYGqVhqw1WuoojV31KaXoQNt7z1uCLLz3YhILcsCSYNteJMl1DmIs7h/XdbInIVELom36uMTCXYf6jbrhx9qfV8kc6/8A9btWuWBBN5d/TVA1PSi2BbZxjHgMhteqX83iYEKGztSXU3RZv+94VRjSURyoy0dkb+hEquNGqQyxlEAFcD9st0yo3hxMcGU2TETD9D9coPDnQsxF7/Z/Th/L4kBD6QJZhulkxmsWRCWQd+z579F+M7Kv+0XEkcHk6M0zHpwMB0nCNkaZSr5CpXyQPbpqk2cOJTbMsmJYyfTSJA6Yc4P2j6knDiXyZTquIll1BFE3twv/VG74V4v04J42fjCGAvULdE0qFSyGTWjgyBGLedV3LH8x/KU0/sfjpw8oRRWFKn5BXkEToE6Gv9Ep22PNS5Sxdh+ta2KldvOZYMXSeAcC+OkNn6p9HbqfR7fM98jvZ++uPmWf888kHfEjJlW5Wr96E5mFiN46gz+QiNHpnBe8RFxnHNWw5uiV9oF5lMs2MlVMnGbS80jK+u8q/BDv1GJWy4n7Fvdh/2pF3eEkputBsLx6vDFx/d3XPM7O5Hvnr0BPaByBD+hxy3aTdIturDmXpyqm92S2TrTlv1HlbmeAnVOr0yHjoL97h8CBtMZ2rDh8U1fr9CJnILDkE+6GR+XSWUZWT+WhCnjI/cgKM1t2CFPyz2+sZXkif7+75YdNP0bR85SSbT7TqhSoZuj4fGHSWQ31ICV2KJdaxxptgrz5n+nVJ5sdGhLzt8LBuhivN3dYRP94twM/61cDN367MKFX2eOFPows0Bb8UpsKyTBQuoe0fZCVWyGmufeprg9y1HYucjsX4lvJLO+CqyHSS6Ent72Cp4V4lUcPIMoYpDK5KN9QIVfykQwAF0Mk4J9+wZp9ziY+MZZG9Vc2PHK+X203OEKoCwxtM59eFZ+HC9AkvsHKyMa5S48p+xfwfgFZDJEymQnmQzIsvv06AHniVUC9CitQ3V44/3zcK9QOZhRTaDEHKCNt6Va5xDhV9a60ASN2An+nrtmkxX7Bs0UhGE6vPS2t4wEfy+IBsAoISciyRPxBJsaX6UXrdyjyVwN16/isNZW9HGy+90Hdz6wNU7Ukq8V8//B2posSq2NuAXAAAAAElFTkSuQmCC;fontColor=#417CB9;fontSize=8;spacingTop=-6;" parent="W6fNKKuVKiUhsK_AsJEE-213" vertex="1">
                    <mxGeometry x="220" y="39.99860465116285" width="40" height="40" as="geometry"/>
                </mxCell>
                <mxCell id="W6fNKKuVKiUhsK_AsJEE-216" value="CONTAINERIZED&lt;br style=&quot;font-size: 8px;&quot;&gt;APPS" style="aspect=fixed;perimeter=ellipsePerimeter;html=1;align=center;shadow=0;dashed=0;fontColor=#4277BB;labelBackgroundColor=none;fontSize=8;spacingTop=3;image;image=img/lib/ibm/applications/microservice.svg;strokeColor=#000000;fillColor=#00882B;" parent="W6fNKKuVKiUhsK_AsJEE-213" vertex="1">
                    <mxGeometry x="270" y="40" width="54.8" height="40" as="geometry"/>
                </mxCell>
                <mxCell id="W6fNKKuVKiUhsK_AsJEE-217" value="NETWORK&lt;br style=&quot;font-size: 8px;&quot;&gt;LB" style="aspect=fixed;perimeter=ellipsePerimeter;html=1;align=center;shadow=0;dashed=0;fontColor=#4277BB;labelBackgroundColor=#ffffff;fontSize=8;spacingTop=3;image;image=img/lib/ibm/vpc/LoadBalancerPool.svg;strokeColor=#000000;fillColor=none;textOpacity=90;" parent="W6fNKKuVKiUhsK_AsJEE-213" vertex="1">
                    <mxGeometry x="20" y="40" width="40" height="40" as="geometry"/>
                </mxCell>
                <mxCell id="W6fNKKuVKiUhsK_AsJEE-218" value="OPENSHIFT&lt;br style=&quot;font-size: 8px&quot;&gt;ROUTER" style="aspect=fixed;perimeter=ellipsePerimeter;html=1;align=center;shadow=0;dashed=0;fontColor=#4277BB;labelBackgroundColor=#ffffff;fontSize=8;spacingTop=3;image;image=img/lib/ibm/vpc/Router.svg;strokeColor=#000000;fillColor=none;" parent="W6fNKKuVKiUhsK_AsJEE-213" vertex="1">
                    <mxGeometry x="70" y="40" width="40" height="40" as="geometry"/>
                </mxCell>
                <mxCell id="W6fNKKuVKiUhsK_AsJEE-219" value="INGRESS&lt;br style=&quot;font-size: 8px;&quot;&gt;ALB" style="aspect=fixed;perimeter=ellipsePerimeter;html=1;align=center;shadow=0;dashed=0;fontColor=#4277BB;labelBackgroundColor=#ffffff;fontSize=8;spacingTop=3;image;image=img/lib/ibm/vpc/LoadBalancer.svg;strokeColor=#000000;fillColor=none;" parent="W6fNKKuVKiUhsK_AsJEE-213" vertex="1">
                    <mxGeometry x="120" y="40" width="40" height="40" as="geometry"/>
                </mxCell>
                <mxCell id="W6fNKKuVKiUhsK_AsJEE-220" value="" style="rounded=0;whiteSpace=wrap;html=1;dashed=1;labelBackgroundColor=none;fontSize=8;fontColor=#000000;strokeColor=none;opacity=50;" parent="W6fNKKuVKiUhsK_AsJEE-213" vertex="1">
                    <mxGeometry x="10" y="30" width="150" height="80" as="geometry"/>
                </mxCell>
                <mxCell id="W6fNKKuVKiUhsK_AsJEE-230" style="edgeStyle=orthogonalEdgeStyle;orthogonalLoop=1;jettySize=auto;html=1;entryX=0;entryY=0.507;entryDx=0;entryDy=0;entryPerimeter=0;endArrow=none;endFill=0;strokeColor=#b85450;strokeWidth=2;fillColor=#f8cecc;fontSize=8;rounded=1;" parent="W6fNKKuVKiUhsK_AsJEE-3" source="W6fNKKuVKiUhsK_AsJEE-26" target="W6fNKKuVKiUhsK_AsJEE-5" edge="1">
                    <mxGeometry relative="1" as="geometry"/>
                </mxCell>
                <mxCell id="W6fNKKuVKiUhsK_AsJEE-234" style="rounded=0;orthogonalLoop=1;jettySize=auto;html=1;entryX=0;entryY=0.5;entryDx=0;entryDy=0;entryPerimeter=0;endArrow=none;endFill=0;strokeColor=#b85450;strokeWidth=2;fillColor=#f8cecc;fontSize=8;" parent="W6fNKKuVKiUhsK_AsJEE-3" source="W6fNKKuVKiUhsK_AsJEE-26" target="W6fNKKuVKiUhsK_AsJEE-205" edge="1">
                    <mxGeometry relative="1" as="geometry"/>
                </mxCell>
                <mxCell id="W6fNKKuVKiUhsK_AsJEE-232" style="edgeStyle=orthogonalEdgeStyle;rounded=1;orthogonalLoop=1;jettySize=auto;html=1;entryX=-0.002;entryY=0.451;entryDx=0;entryDy=0;entryPerimeter=0;endArrow=none;endFill=0;strokeColor=#b85450;strokeWidth=2;fillColor=#f8cecc;fontSize=8;" parent="W6fNKKuVKiUhsK_AsJEE-3" source="W6fNKKuVKiUhsK_AsJEE-26" target="W6fNKKuVKiUhsK_AsJEE-213" edge="1">
                    <mxGeometry relative="1" as="geometry"/>
                </mxCell>
                <mxCell id="W6fNKKuVKiUhsK_AsJEE-26" value="MZLB" style="aspect=fixed;perimeter=ellipsePerimeter;html=1;align=center;shadow=0;dashed=0;fontColor=#4277BB;labelBackgroundColor=#ffffff;fontSize=10;spacingTop=3;image;image=img/lib/ibm/infrastructure/load_balancing_routing.svg;fillColor=none;" parent="W6fNKKuVKiUhsK_AsJEE-3" vertex="1">
                    <mxGeometry x="80" y="232" width="40" height="40" as="geometry"/>
                </mxCell>
                <mxCell id="kz8PZC0MePa_d6amyWjo-17" style="edgeStyle=orthogonalEdgeStyle;orthogonalLoop=1;jettySize=auto;html=1;endArrow=none;endFill=0;strokeColor=#b85450;strokeWidth=2;fillColor=#f8cecc;fontSize=10;" parent="W6fNKKuVKiUhsK_AsJEE-3" source="W6fNKKuVKiUhsK_AsJEE-228" target="kz8PZC0MePa_d6amyWjo-9" edge="1">
                    <mxGeometry relative="1" as="geometry"/>
                </mxCell>
                <mxCell id="W6fNKKuVKiUhsK_AsJEE-228" value="CLOUD&lt;br style=&quot;font-size: 10px&quot;&gt;INTERNET&lt;br style=&quot;font-size: 10px&quot;&gt;SERVICES&amp;nbsp;" style="aspect=fixed;perimeter=ellipsePerimeter;html=1;align=center;shadow=0;dashed=0;fontColor=#4277BB;labelBackgroundColor=#ffffff;fontSize=10;spacingTop=3;image;image=img/lib/ibm/vpc/InternetServices2.svg;strokeColor=#000000;fillColor=#ffffff;" parent="W6fNKKuVKiUhsK_AsJEE-3" vertex="1">
                    <mxGeometry x="-80" y="232" width="40" height="40" as="geometry"/>
                </mxCell>
                <mxCell id="W6fNKKuVKiUhsK_AsJEE-224" style="edgeStyle=orthogonalEdgeStyle;rounded=1;orthogonalLoop=1;jettySize=auto;html=1;endArrow=none;endFill=0;strokeColor=#b85450;strokeWidth=2;fillColor=#f8cecc;fontSize=10;" parent="1" source="W6fNKKuVKiUhsK_AsJEE-23" target="W6fNKKuVKiUhsK_AsJEE-228" edge="1">
                    <mxGeometry relative="1" as="geometry">
                        <mxPoint x="120" y="290" as="targetPoint"/>
                    </mxGeometry>
                </mxCell>
                <mxCell id="8skrEvci1_EOPxCBlptw-1" value="Enterprise Network" style="shape=mxgraph.ibm.box;prType=enterprise;fontStyle=0;verticalAlign=top;align=left;spacingLeft=32;spacingTop=4;fillColor=none;rounded=0;whiteSpace=wrap;html=1;strokeColor=#4376BB;strokeWidth=3;dashed=0;container=1;spacing=-4;collapsible=0;expand=0;recursiveResize=0;" parent="1" vertex="1">
                    <mxGeometry x="-130" y="30" width="140" height="630" as="geometry"/>
                </mxCell>
                <mxCell id="kz8PZC0MePa_d6amyWjo-8" style="edgeStyle=orthogonalEdgeStyle;rounded=1;orthogonalLoop=1;jettySize=auto;html=1;fontSize=10;exitX=0.5;exitY=0;exitDx=0;exitDy=0;strokeColor=#6c8ebf;strokeWidth=2;fillColor=#dae8fc;endFill=0;endArrow=none;" parent="8skrEvci1_EOPxCBlptw-1" source="kz8PZC0MePa_d6amyWjo-7" target="e8pd-iQm5qVyD5Tf2BXh-3" edge="1">
                    <mxGeometry relative="1" as="geometry">
                        <Array as="points">
                            <mxPoint x="70" y="80"/>
                        </Array>
                    </mxGeometry>
                </mxCell>
                <mxCell id="kz8PZC0MePa_d6amyWjo-7" value="&lt;br&gt;" style="fontStyle=0;verticalAlign=top;align=center;spacingTop=-2;fillColor=none;rounded=0;whiteSpace=wrap;html=1;strokeColor=#919191;strokeWidth=2;dashed=1;container=1;collapsible=0;expand=0;recursiveResize=0;fontSize=10;" parent="8skrEvci1_EOPxCBlptw-1" vertex="1">
                    <mxGeometry x="25" y="210" width="90" height="200" as="geometry"/>
                </mxCell>
                <mxCell id="kz8PZC0MePa_d6amyWjo-5" value="ENTERPRISE&lt;br&gt;DATA" style="aspect=fixed;perimeter=ellipsePerimeter;html=1;align=center;shadow=0;dashed=0;fontColor=#4277BB;labelBackgroundColor=#ffffff;fontSize=10;spacingTop=3;image;image=img/lib/ibm/data/enterprise_data.svg;" parent="kz8PZC0MePa_d6amyWjo-7" vertex="1">
                    <mxGeometry x="25" y="20" width="40" height="40" as="geometry"/>
                </mxCell>
                <mxCell id="kz8PZC0MePa_d6amyWjo-6" value="ENTERPRISE&lt;br&gt;APPS" style="aspect=fixed;perimeter=ellipsePerimeter;html=1;align=center;shadow=0;dashed=0;fontColor=#4277BB;labelBackgroundColor=#ffffff;fontSize=10;spacingTop=3;image;image=img/lib/ibm/applications/enterprise_applications.svg;" parent="kz8PZC0MePa_d6amyWjo-7" vertex="1">
                    <mxGeometry x="25" y="110" width="40" height="40" as="geometry"/>
                </mxCell>
                <mxCell id="e8pd-iQm5qVyD5Tf2BXh-3" value="ENTERPRISE&lt;br style=&quot;font-size: 10px&quot;&gt;CONNECTIVITY" style="aspect=fixed;perimeter=ellipsePerimeter;html=1;align=center;shadow=0;dashed=0;fontColor=#4277BB;labelBackgroundColor=#ffffff;fontSize=10;spacingTop=3;image;image=img/lib/ibm/infrastructure/transformation_connectivity.svg;" parent="8skrEvci1_EOPxCBlptw-1" vertex="1">
                    <mxGeometry x="120" y="60" width="40" height="40" as="geometry"/>
                </mxCell>
                <mxCell id="kz8PZC0MePa_d6amyWjo-23" value="LEGEND" style="text;html=1;strokeColor=none;fillColor=none;align=center;verticalAlign=middle;whiteSpace=wrap;rounded=0;fontSize=10;fontStyle=1" parent="8skrEvci1_EOPxCBlptw-1" vertex="1">
                    <mxGeometry x="10" y="555" width="40" height="20" as="geometry"/>
                </mxCell>
                <mxCell id="kz8PZC0MePa_d6amyWjo-24" style="rounded=1;orthogonalLoop=1;jettySize=auto;html=1;fontSize=10;exitX=0.5;exitY=0;exitDx=0;exitDy=0;strokeColor=#6c8ebf;strokeWidth=2;fillColor=#dae8fc;endFill=0;endArrow=none;" parent="8skrEvci1_EOPxCBlptw-1" edge="1">
                    <mxGeometry relative="1" as="geometry">
                        <mxPoint x="50" y="590" as="sourcePoint"/>
                        <mxPoint x="10" y="590" as="targetPoint"/>
                    </mxGeometry>
                </mxCell>
                <mxCell id="kz8PZC0MePa_d6amyWjo-25" style="rounded=1;orthogonalLoop=1;jettySize=auto;html=1;fontSize=10;exitX=0.5;exitY=0;exitDx=0;exitDy=0;strokeColor=#b85450;strokeWidth=2;fillColor=#f8cecc;endFill=0;endArrow=none;" parent="8skrEvci1_EOPxCBlptw-1" edge="1">
                    <mxGeometry relative="1" as="geometry">
                        <mxPoint x="50" y="610" as="sourcePoint"/>
                        <mxPoint x="10" y="610" as="targetPoint"/>
                    </mxGeometry>
                </mxCell>
                <mxCell id="kz8PZC0MePa_d6amyWjo-26" value="&lt;span style=&quot;font-weight: normal&quot;&gt;&lt;font style=&quot;font-size: 8px&quot;&gt;PRIVATE NETWORK&lt;/font&gt;&lt;/span&gt;" style="text;html=1;strokeColor=none;fillColor=none;align=center;verticalAlign=middle;whiteSpace=wrap;rounded=0;fontSize=10;fontStyle=1" parent="8skrEvci1_EOPxCBlptw-1" vertex="1">
                    <mxGeometry x="50" y="578" width="82" height="20" as="geometry"/>
                </mxCell>
                <mxCell id="kz8PZC0MePa_d6amyWjo-27" value="&lt;span style=&quot;font-weight: normal&quot;&gt;&lt;font style=&quot;font-size: 8px&quot;&gt;PUBLIC NETWORK&lt;/font&gt;&lt;/span&gt;" style="text;html=1;strokeColor=none;fillColor=none;align=center;verticalAlign=middle;whiteSpace=wrap;rounded=0;fontSize=10;fontStyle=1" parent="8skrEvci1_EOPxCBlptw-1" vertex="1">
                    <mxGeometry x="48" y="598" width="82" height="20" as="geometry"/>
                </mxCell>
                <mxCell id="kz8PZC0MePa_d6amyWjo-19" style="edgeStyle=orthogonalEdgeStyle;orthogonalLoop=1;jettySize=auto;html=1;endArrow=none;endFill=0;strokeColor=#6c8ebf;strokeWidth=2;fillColor=#dae8fc;fontSize=10;" parent="1" source="e8pd-iQm5qVyD5Tf2BXh-3" target="kz8PZC0MePa_d6amyWjo-9" edge="1">
                    <mxGeometry relative="1" as="geometry">
                        <Array as="points">
                            <mxPoint x="230" y="110"/>
                        </Array>
                    </mxGeometry>
                </mxCell>
                <mxCell id="kz8PZC0MePa_d6amyWjo-28" value="ENTERPRISE&lt;br style=&quot;font-size: 8px;&quot;&gt;CONNETTIVITY" style="aspect=fixed;perimeter=ellipsePerimeter;html=1;align=center;shadow=0;dashed=0;fontColor=#4277BB;labelBackgroundColor=#ffffff;fontSize=8;spacingTop=3;image;image=img/lib/ibm/infrastructure/transformation_connectivity.svg;" parent="1" vertex="1">
                    <mxGeometry x="880" y="40" width="40" height="40" as="geometry"/>
                </mxCell>
                <mxCell id="kz8PZC0MePa_d6amyWjo-29" value="CLOUD&lt;br style=&quot;font-size: 8px&quot;&gt;INTERNET&lt;br style=&quot;font-size: 8px&quot;&gt;SERVICES&amp;nbsp;" style="aspect=fixed;perimeter=ellipsePerimeter;html=1;align=center;shadow=0;dashed=0;fontColor=#4277BB;labelBackgroundColor=#ffffff;fontSize=8;spacingTop=3;image;image=img/lib/ibm/vpc/InternetServices2.svg;strokeColor=#000000;fillColor=#ffffff;verticalAlign=middle;" parent="1" vertex="1">
                    <mxGeometry x="880" y="110" width="40" height="40" as="geometry"/>
                </mxCell>
                <mxCell id="kz8PZC0MePa_d6amyWjo-30" value="&lt;br&gt;&lt;br&gt;&lt;br&gt;&lt;br&gt;&lt;br&gt;&lt;br&gt;&lt;br&gt;&lt;br&gt;&lt;p style=&quot;margin-top: 0pt; margin-bottom: 0pt; margin-left: 0in; direction: ltr; unicode-bidi: embed; word-break: normal;&quot;&gt;&lt;span style=&quot;font-size: 8pt ; font-family: &amp;quot;arial&amp;quot;&quot;&gt;Provides connectivity to enterprise over&lt;br&gt;private network. Direct Link, strongSwan IPSec VPN, Virtual Router Applicance or Fortigate Security Appliance&lt;/span&gt;&lt;/p&gt;&lt;br&gt;&lt;br&gt;&lt;br&gt;&lt;br&gt;&lt;br&gt;&lt;br&gt;&lt;br&gt;&lt;br&gt;&lt;br&gt;&lt;br&gt;&lt;p style=&quot;margin-top: 0pt; margin-bottom: 0pt; margin-left: 0in; direction: ltr; unicode-bidi: embed; word-break: normal;&quot;&gt;&lt;span style=&quot;font-size: 8pt ; font-family: &amp;quot;arial&amp;quot;&quot;&gt;,&amp;nbsp;&lt;/span&gt;&lt;/p&gt;" style="text;html=1;strokeColor=none;fillColor=none;align=left;verticalAlign=middle;whiteSpace=wrap;rounded=0;fontSize=8;labelPosition=center;verticalLabelPosition=middle;" parent="1" vertex="1">
                    <mxGeometry x="940" y="50" width="200" height="70" as="geometry"/>
                </mxCell>
                <mxCell id="kz8PZC0MePa_d6amyWjo-31" style="edgeStyle=none;orthogonalLoop=1;jettySize=auto;html=1;entryX=0.5;entryY=0;entryDx=0;entryDy=0;endArrow=none;endFill=0;strokeColor=#6c8ebf;strokeWidth=2;fillColor=#dae8fc;fontSize=8;" parent="1" source="kz8PZC0MePa_d6amyWjo-30" target="kz8PZC0MePa_d6amyWjo-30" edge="1">
                    <mxGeometry relative="1" as="geometry"/>
                </mxCell>
                <mxCell id="kz8PZC0MePa_d6amyWjo-33" value="&lt;br&gt;&lt;br&gt;&lt;br&gt;&lt;br&gt;&lt;br&gt;&lt;br&gt;&lt;br&gt;&lt;br&gt;&lt;br&gt;&lt;span style=&quot;font-size: 8.0pt ; font-family: &amp;#34;arial&amp;#34; ; color: black&quot;&gt;Provides DNS, GLB, DDoS protection, WAF, TLS, and Caching&lt;/span&gt;&lt;br&gt;&lt;br&gt;&lt;br&gt;" style="text;html=1;strokeColor=none;fillColor=none;align=left;verticalAlign=bottom;whiteSpace=wrap;rounded=0;fontSize=8;labelPosition=center;verticalLabelPosition=middle;" parent="1" vertex="1">
                    <mxGeometry x="940" y="100" width="140" height="70" as="geometry"/>
                </mxCell>
            </root>
        </mxGraphModel>
    </diagram>
    <diagram id="s2r2w4KdDR4AtHRbDbaU" name="VPC Based">
        <mxGraphModel dx="2052" dy="1206" grid="1" gridSize="10" guides="1" tooltips="1" connect="1" arrows="1" fold="1" page="1" pageScale="1" pageWidth="827" pageHeight="1169" math="0" shadow="0">
            <root>
                <mxCell id="wFcLuxpcmioQkO3KB6M4-0"/>
                <mxCell id="wFcLuxpcmioQkO3KB6M4-1" parent="wFcLuxpcmioQkO3KB6M4-0"/>
                <mxCell id="4Ibw5u8rCarXw6itUJmL-41" value="Public Cloud" style="shape=mxgraph.ibm.box;prType=cloud;fontStyle=0;verticalAlign=top;align=left;spacingLeft=32;spacingTop=4;fillColor=none;rounded=0;whiteSpace=wrap;html=1;strokeColor=#4376BB;strokeWidth=3;dashed=0;container=0;spacing=-4;collapsible=0;expand=0;recursiveResize=0;" parent="wFcLuxpcmioQkO3KB6M4-1" vertex="1">
                    <mxGeometry x="280" y="220" width="1230" height="900" as="geometry"/>
                </mxCell>
                <mxCell id="4Ibw5u8rCarXw6itUJmL-42" value="VPC" style="outlineConnect=0;gradientColor=none;html=1;whiteSpace=wrap;fontSize=12;fontStyle=0;shape=mxgraph.aws4.group;grIcon=mxgraph.aws4.group_vpc;strokeColor=#879196;fillColor=none;verticalAlign=top;align=left;spacingLeft=30;fontColor=#879196;dashed=0;" parent="wFcLuxpcmioQkO3KB6M4-1" vertex="1">
                    <mxGeometry x="310" y="265" width="1010" height="815" as="geometry"/>
                </mxCell>
                <mxCell id="zK4Mn87WcBIrCbpFITka-33" value="Zone" style="shape=mxgraph.ibm.box;prType=zone;fontStyle=0;verticalAlign=top;align=left;spacingLeft=32;spacingTop=4;fillColor=#E0E0E0;rounded=0;whiteSpace=wrap;html=1;strokeColor=#919191;strokeWidth=1;dashed=0;container=1;spacing=-4;collapsible=0;expand=0;recursiveResize=0;labelBackgroundColor=none;fontColor=#000000;" parent="wFcLuxpcmioQkO3KB6M4-1" vertex="1">
                    <mxGeometry x="360" y="310" width="280" height="550" as="geometry"/>
                </mxCell>
                <mxCell id="-xe5Zi3iIcbzFhxBxrMK-1" value="Public subnet" style="points=[[0,0],[0.25,0],[0.5,0],[0.75,0],[1,0],[1,0.25],[1,0.5],[1,0.75],[1,1],[0.75,1],[0.5,1],[0.25,1],[0,1],[0,0.75],[0,0.5],[0,0.25]];outlineConnect=0;gradientColor=none;html=1;whiteSpace=wrap;fontSize=12;fontStyle=0;shape=mxgraph.aws4.group;grIcon=mxgraph.aws4.group_security_group;grStroke=0;strokeColor=#248814;fillColor=#E9F3E6;verticalAlign=top;align=left;spacingLeft=30;fontColor=#248814;dashed=0;" parent="zK4Mn87WcBIrCbpFITka-33" vertex="1">
                    <mxGeometry x="40" y="63.420000000000016" width="210" height="150" as="geometry"/>
                </mxCell>
                <mxCell id="6QOT3MC5WNKS1KmKuTmx-39" value="&lt;span style=&quot;background-color: rgb(233 , 243 , 230)&quot;&gt;NAT Gateway&lt;/span&gt;" style="aspect=fixed;perimeter=ellipsePerimeter;html=1;align=center;shadow=0;dashed=0;fontColor=#4277BB;labelBackgroundColor=#ffffff;fontSize=12;spacingTop=3;image;image=img/lib/ibm/infrastructure/load_balancing_routing.svg;fillColor=none;" parent="zK4Mn87WcBIrCbpFITka-33" vertex="1">
                    <mxGeometry x="165.06999999999994" y="70" width="60" height="60" as="geometry"/>
                </mxCell>
                <mxCell id="zK4Mn87WcBIrCbpFITka-32" value="Enterprise Network" style="shape=mxgraph.ibm.box;prType=enterprise;fontStyle=0;verticalAlign=top;align=left;spacingLeft=32;spacingTop=4;fillColor=none;rounded=0;whiteSpace=wrap;html=1;strokeColor=#4376BB;strokeWidth=3;dashed=0;container=1;spacing=-4;collapsible=0;expand=0;recursiveResize=0;labelBackgroundColor=none;fontColor=#000000;" parent="wFcLuxpcmioQkO3KB6M4-1" vertex="1">
                    <mxGeometry x="50" y="220" width="230" height="900" as="geometry"/>
                </mxCell>
                <mxCell id="zK4Mn87WcBIrCbpFITka-49" value="Enterprise Services" style="fontStyle=0;verticalAlign=top;align=center;spacingTop=-2;fillColor=none;rounded=0;whiteSpace=wrap;html=1;strokeColor=#919191;strokeWidth=2;dashed=1;container=1;collapsible=0;expand=0;recursiveResize=0;labelBackgroundColor=none;fontColor=#000000;" parent="zK4Mn87WcBIrCbpFITka-32" vertex="1">
                    <mxGeometry x="10" y="620" width="170" height="200" as="geometry"/>
                </mxCell>
                <mxCell id="zK4Mn87WcBIrCbpFITka-47" value="" style="aspect=fixed;perimeter=ellipsePerimeter;html=1;align=center;shadow=0;dashed=0;fontColor=#4277BB;labelBackgroundColor=#ffffff;fontSize=12;spacingTop=3;image;image=img/lib/ibm/applications/app_server.svg;fillColor=none;" parent="zK4Mn87WcBIrCbpFITka-49" vertex="1">
                    <mxGeometry x="60" y="70" width="60" height="60" as="geometry"/>
                </mxCell>
                <mxCell id="zK4Mn87WcBIrCbpFITka-45" value="" style="aspect=fixed;perimeter=ellipsePerimeter;html=1;align=center;shadow=0;dashed=0;fontColor=#4277BB;labelBackgroundColor=#ffffff;fontSize=12;spacingTop=3;image;image=img/lib/ibm/vpc/VPNConnection.svg;fillColor=none;" parent="zK4Mn87WcBIrCbpFITka-32" vertex="1">
                    <mxGeometry x="200" y="730" width="60" height="60" as="geometry"/>
                </mxCell>
                <mxCell id="zK4Mn87WcBIrCbpFITka-50" style="edgeStyle=orthogonalEdgeStyle;rounded=0;orthogonalLoop=1;jettySize=auto;html=1;strokeColor=#000000;fontColor=#000000;" parent="zK4Mn87WcBIrCbpFITka-32" source="zK4Mn87WcBIrCbpFITka-47" target="zK4Mn87WcBIrCbpFITka-45" edge="1">
                    <mxGeometry relative="1" as="geometry"/>
                </mxCell>
                <mxCell id="zK4Mn87WcBIrCbpFITka-37" value="Zone" style="shape=mxgraph.ibm.box;prType=zone;fontStyle=0;verticalAlign=top;align=left;spacingLeft=32;spacingTop=4;fillColor=#E0E0E0;rounded=0;whiteSpace=wrap;html=1;strokeColor=#919191;strokeWidth=1;dashed=0;container=1;spacing=-4;collapsible=0;expand=0;recursiveResize=0;labelBackgroundColor=none;fontColor=#000000;" parent="wFcLuxpcmioQkO3KB6M4-1" vertex="1">
                    <mxGeometry x="920" y="310" width="230" height="550" as="geometry"/>
                </mxCell>
                <mxCell id="tarBgke6ixM7yctaXvzE-6" value="Public subnet" style="points=[[0,0],[0.25,0],[0.5,0],[0.75,0],[1,0],[1,0.25],[1,0.5],[1,0.75],[1,1],[0.75,1],[0.5,1],[0.25,1],[0,1],[0,0.75],[0,0.5],[0,0.25]];outlineConnect=0;gradientColor=none;html=1;whiteSpace=wrap;fontSize=12;fontStyle=0;shape=mxgraph.aws4.group;grIcon=mxgraph.aws4.group_security_group;grStroke=0;strokeColor=#248814;fillColor=#E9F3E6;verticalAlign=top;align=left;spacingLeft=30;fontColor=#248814;dashed=0;" parent="zK4Mn87WcBIrCbpFITka-37" vertex="1">
                    <mxGeometry x="12.98" y="70" width="207.02" height="160" as="geometry"/>
                </mxCell>
                <mxCell id="6QOT3MC5WNKS1KmKuTmx-41" value="&lt;span style=&quot;background-color: rgb(233 , 243 , 230)&quot;&gt;NAT Gateway&lt;/span&gt;" style="aspect=fixed;perimeter=ellipsePerimeter;html=1;align=center;shadow=0;dashed=0;fontColor=#4277BB;labelBackgroundColor=#ffffff;fontSize=12;spacingTop=3;image;image=img/lib/ibm/infrastructure/load_balancing_routing.svg;fillColor=none;" parent="zK4Mn87WcBIrCbpFITka-37" vertex="1">
                    <mxGeometry x="79.99999999999997" y="150" width="60" height="60" as="geometry"/>
                </mxCell>
                <mxCell id="zK4Mn87WcBIrCbpFITka-36" value="Zone" style="shape=mxgraph.ibm.box;prType=zone;fontStyle=0;verticalAlign=top;align=left;spacingLeft=32;spacingTop=4;fillColor=#E0E0E0;rounded=0;whiteSpace=wrap;html=1;strokeColor=#919191;strokeWidth=1;dashed=0;container=1;spacing=-4;collapsible=0;expand=0;recursiveResize=0;labelBackgroundColor=none;fontColor=#000000;" parent="wFcLuxpcmioQkO3KB6M4-1" vertex="1">
                    <mxGeometry x="652" y="310" width="258" height="550" as="geometry"/>
                </mxCell>
                <mxCell id="tarBgke6ixM7yctaXvzE-3" value="Private subnet" style="points=[[0,0],[0.25,0],[0.5,0],[0.75,0],[1,0],[1,0.25],[1,0.5],[1,0.75],[1,1],[0.75,1],[0.5,1],[0.25,1],[0,1],[0,0.75],[0,0.5],[0,0.25]];outlineConnect=0;gradientColor=none;html=1;whiteSpace=wrap;fontSize=12;fontStyle=0;shape=mxgraph.aws4.group;grIcon=mxgraph.aws4.group_security_group;grStroke=0;strokeColor=#147EBA;fillColor=#E6F2F8;verticalAlign=top;align=left;spacingLeft=30;fontColor=#147EBA;dashed=0;" parent="zK4Mn87WcBIrCbpFITka-36" vertex="1">
                    <mxGeometry x="13" y="302.53999999999996" width="230" height="210" as="geometry"/>
                </mxCell>
                <mxCell id="tarBgke6ixM7yctaXvzE-5" value="Public subnet" style="points=[[0,0],[0.25,0],[0.5,0],[0.75,0],[1,0],[1,0.25],[1,0.5],[1,0.75],[1,1],[0.75,1],[0.5,1],[0.25,1],[0,1],[0,0.75],[0,0.5],[0,0.25]];outlineConnect=0;gradientColor=none;html=1;whiteSpace=wrap;fontSize=12;fontStyle=0;shape=mxgraph.aws4.group;grIcon=mxgraph.aws4.group_security_group;grStroke=0;strokeColor=#248814;fillColor=#E9F3E6;verticalAlign=top;align=left;spacingLeft=30;fontColor=#248814;dashed=0;" parent="zK4Mn87WcBIrCbpFITka-36" vertex="1">
                    <mxGeometry x="22" y="70" width="221" height="160" as="geometry"/>
                </mxCell>
                <mxCell id="6QOT3MC5WNKS1KmKuTmx-40" value="&lt;span style=&quot;background-color: rgb(233 , 243 , 230)&quot;&gt;NAT Gateway&lt;/span&gt;" style="aspect=fixed;perimeter=ellipsePerimeter;html=1;align=center;shadow=0;dashed=0;fontColor=#4277BB;labelBackgroundColor=#ffffff;fontSize=12;spacingTop=3;image;image=img/lib/ibm/infrastructure/load_balancing_routing.svg;fillColor=none;" parent="zK4Mn87WcBIrCbpFITka-36" vertex="1">
                    <mxGeometry x="38" y="110" width="60" height="60" as="geometry"/>
                </mxCell>
                <mxCell id="6QOT3MC5WNKS1KmKuTmx-23" value="WORKER&#10;NODE 1" style="shape=image;verticalLabelPosition=bottom;verticalAlign=middle;imageAspect=0;image=data:image/png,iVBORw0KGgoAAAANSUhEUgAAAHQAAAB2CAYAAAAZUrcsAAAAAXNSR0IArs4c6QAAAAlwSFlzAAAXEgAAFxIBZ5/SUgAADdNJREFUeAHtXQuQFMUZ/ntmd8/jDgUOoxxRTEwiBrWiaOS4fXjyNEBVNIFo1BhNCmPUMhTcAZqKq/EFe+eDECvxkcRXGUBLtCwCBXre7p5CEENFL4nP5BCxRMDHcZx3uzOdv/eYYXZuHzOzM7OzXk/V1sx0//3/f3/fdk9PP6YB+MER4Ah4FwHiXdds84xE20+qgr7jAoEA9Q+IAxIcFAe6+nb0r1sAkm1WPKKo4gmNrp0UOOq4ulNEQicRAU4FIBMGfzAOMa7DDI4GAmJuvOnnlMJ+jNtLCNklU9pNKHlbpnLXIamnK9q089Pc6bwbWnGE3pkIjvZTMg1EEgQKU5CsMwmQgEMQv4M2tgKRX5bSZEtLJP62Q3ZsU1sRhK7oCJ8qCvADLIHzKMDZSKBgGwImFKHtbqD0b5TKT/emky9FmyBtIrkrop4l9PZ4aFyVKFyOAF6B1eG3XUHDlBF6QKZkDUnDn5ec17HdVFIHhT1H6IpkpMkH9AZ8Ds7N/+xzEBELqrHkvkFBXrXng/Tj9yx4pc+CCtuSeILQaBSEkdPD8xGYG7E0nmFb7lxWhP7vpzJd3Zv+/N5yNajKTmgsGV4gEIhiicQW6pfloJ9jdXyfDOnY0mBnj5u5KhuhbR3hqdhSbcNqdYqbGXbTFgW6F9sAN2/bk3jQrXde1wm9Y8t36wLV1TE0fKWb4JbTFr7r7sT28EI3Gk+uEtqaCF4CRFxFCIwtJ8DlsI2lVUawV+/+ILXMyYaTK4RmOgME8X40dnE5wPSSTSytb0qQvgyfra864ZfjhMYSwXMJEdZh6/UEJzJQiTqR1DTWUksXN3bcbbf/jhLalghfSwW428GuObvxcFUfvuY8JdH0VXa2hB0hNNoOvpH+8Gog5GpXEapIY/R1bDDNWRyJv2+H+7YTuiLZOFIk4joslbPscHBY6KD0Q+wfnrcklNxRan5t7eSObmwY4wPfi5xMk7QQMg7HG9pXxkMRkymHiNtWQle2n3O8EBixGRWeNsQKDzCIAO2TZPmillByo8EEQ8RsIbS1ffJY8Nd0eHNUZEievR1AoV+m0tzmUHKLFUdLrnLv2jz5GBKo2cTJtAJ/jjQEqggR12P125gjtmhQSYSy6R++6tr12LF+VlFLXMAwAviOWiMKwvNsYN9wosOCJRE6sr7uQTR+nlmjXN4AAgRG+XxkQ6xz6lcMSKsilgltTYaX4XvmT1RN/MIJBE4i1Ld+4R8n+40qt0RorCN8Pr6a3GbUCJezjgC2TRpOmVRjuIvQdCsXOw7qfSDuxNJ5rHU3eUqzCMiSfElzOPHXYunMEkrakuGNSObMYooLxYvEDwFxRCER2+MkmoIB6VBGb7ntW8kc9vt+lqbSGcuCyV2F0vsKRerjWjtD12GLtiQymc6TxzTC3FOievWO3r+17yV4/q1Bm3r7aXkgQzYjuspXo/phVzhTqLWvGjBxgSXvGKwZH8Ek5+MP+c19GH6G4nPza/jcvCu3GuuhDLRDqU+hP92bpSRfOBPKF5cvPEtxjpv3DrwMf9j+fdj8biwr1q7wLKUl3LA3itZE5JpCKgwTSkT4PZZO2+tJs6CxzFhJUwiEiooT4A42Zzmfz4YIbY2HfoitrQvyKeHh7iHAqt4qgdyTz2JRQllvEBHIinwKeLj7CGDh+lGsM9KQy3JRQmvH1V2Prdqv50rMw8qHAKG0LZf1goRG2yfVgkCW50rIw8qLAOtwiCUi8/ReFCS0xld3LdbZdfpE/N4bCOCKg9/oPclL6KK1DdX4L1iiT8DvPYQAgbNXJoKztR7lJbR+vO8yfO8ZdhOiteBUwrVIhEVaP/MSKlABl/Txw/MIEJihHTfNSWhrRziMi4gmeT4z3EFEgBCfD36hQJGTUPCRnyoC/Ox9BCiQS1l/AfN0CKGxTWfUEArzvZ8N7qGCAHsTqa2vm8vuhxAqjBj9PaxuaxVhfq4YBBYwT4cQimtRLqqYLHBHVQRwJGwOfmDrqCxCM3NXKJ2jSvGLykEAa9Ua8YRpWYR+a2JNA3YmjKycXHBPtQgIIpmZRSj4YIZWgF9XHAIzsgml5LyKywJ3WIMAOVUllK3pJIRO1sTyywpEQCV0hBjCDz6R6grMA3dZg4BKqEjIdzTh/LJCEVAJlYHyvtsKJVHrtkoozhvihGqRqdBrlVCg5KQKzQN3W4OASii2cE/UhA+rS1EIQLV/FC7PqMnKt13hWUodvskshWDf3ytXC9csaAwPK2kK4XjymKlwzRhct6w77ArXqXX0NkNoVVWgbBPBzILG0LCSxlEUPaQ8Q6gsiHVq3euCc8oaFBdMqSb6pSNrZ8ptX3XKgQscGwVY2RmeKQLZ5IB+rtJlBDIFk8ikymW73JxDCGSqXCrIOB/FvUq33Atuy23fIS4zajOEChRnEWUqXydNHdGtXXDLnmdsZbXRxbZMi5U02gW3WvtW9JVq/wgS9l9liiXuZNBvv2pjGq2s9bSSppA3ZvWZlS9k2+64wWeoIAzYrZjrKw8Cgw/ONFTcpm3lgcv7VjOEyv7UAe+7yj00gsAgoYf69xkR5jLeRyBD6LIZOz6jlPZ4313uYTEEBp+hTIqQ7mLCPN77CBwhlNL3vO8u97AYAiqhOJW+q5gwj/c+AiqhuJUTJ9T7fBX1UCVUkuC1otJcwPMIqIQujcT/g58E5B0MnqessIMqoShGsY9+W2FxHutlBNgOiFpC8Rbaveww960oAjuyCaV0c9EkXMC7CCB/WYS2hBP/QG8/8q7H3LOCCEhkUxahKIxbW9JnCybikd5EgNKPt30U79QTCjLA0970mHtVEAFK1rON24cQemgg/iKW0r0FE/NIzyEgyzSzY8QQQqNNkMYpKY97zmPuUF4EcEeB7uZIPPOGMoRQlkqSyV/ypuYRnkMACyDjC3kF/ExGjmNZJP56a2c4jh324RzRhoJG+EfDJaffr8omdz0Eb+57Qb0fzhf1I0+DC755kwrB1t2PQdfeDeq9uQuakon0gJImJ6GZSAr34dROy4QKuI3E0VXHK3YgIPDV/goYPqEqC5uqEjYlwvm3T+Gm7HsU3TmrXBa5bU/8WXyHeVcR5GePIiBLWd+ez0soawLjh+rv8Gg2uFsMAUo36Ddiz0sok+9Jxx/FuUb/ZddOHVbWelpJU8h/s/rMyheyXUqcTOVb9enzP0NRkr3CxJLwa1wl8YQ+oV33VtZ6WklTyF+z+szKF7JtOY7SZ3Cf7iGjYwVLKDPWHIw/iR0N2y0b5gkdQICmcELC0lyKC5bQwwmoLNFFoggJNjUwlxIjYazVqxzKglt8LVKCHD8PSH2qDZmmoS/1mXrv9AUWCNAuOC7VHvYK/a4lkng7lx4jhAKOwnS2JiMPI50/z6XESNixNd9Qxd77ZHA3QDXA5Yt3DiSB/SrxwDbN+73pAzfn871olaskTFGphffxKmiU74x12nXRpq6D+TwwTOjyUPITJHRhPkU83HkEsG/vscXB+HOFLBmqchUFzY2JZ3HL5ofxUfozJczoeeLYaTBh1DlGxb/UcqynyPRB6a50X+/1xdKZIpQp60nt/1VtYGwjFv2JxZRr4/1iNbAfP8wjgD12aQD5UrYGqVhqw1WuoojV31KaXoQNt7z1uCLLz3YhILcsCSYNteJMl1DmIs7h/XdbInIVELom36uMTCXYf6jbrhx9qfV8kc6/8A9btWuWBBN5d/TVA1PSi2BbZxjHgMhteqX83iYEKGztSXU3RZv+94VRjSURyoy0dkb+hEquNGqQyxlEAFcD9st0yo3hxMcGU2TETD9D9coPDnQsxF7/Z/Th/L4kBD6QJZhulkxmsWRCWQd+z579F+M7Kv+0XEkcHk6M0zHpwMB0nCNkaZSr5CpXyQPbpqk2cOJTbMsmJYyfTSJA6Yc4P2j6knDiXyZTquIll1BFE3twv/VG74V4v04J42fjCGAvULdE0qFSyGTWjgyBGLedV3LH8x/KU0/sfjpw8oRRWFKn5BXkEToE6Gv9Ep22PNS5Sxdh+ta2KldvOZYMXSeAcC+OkNn6p9HbqfR7fM98jvZ++uPmWf888kHfEjJlW5Wr96E5mFiN46gz+QiNHpnBe8RFxnHNWw5uiV9oF5lMs2MlVMnGbS80jK+u8q/BDv1GJWy4n7Fvdh/2pF3eEkputBsLx6vDFx/d3XPM7O5Hvnr0BPaByBD+hxy3aTdIturDmXpyqm92S2TrTlv1HlbmeAnVOr0yHjoL97h8CBtMZ2rDh8U1fr9CJnILDkE+6GR+XSWUZWT+WhCnjI/cgKM1t2CFPyz2+sZXkif7+75YdNP0bR85SSbT7TqhSoZuj4fGHSWQ31ICV2KJdaxxptgrz5n+nVJ5sdGhLzt8LBuhivN3dYRP94twM/61cDN367MKFX2eOFPows0Bb8UpsKyTBQuoe0fZCVWyGmufeprg9y1HYucjsX4lvJLO+CqyHSS6Ent72Cp4V4lUcPIMoYpDK5KN9QIVfykQwAF0Mk4J9+wZp9ziY+MZZG9Vc2PHK+X203OEKoCwxtM59eFZ+HC9AkvsHKyMa5S48p+xfwfgFZDJEymQnmQzIsvv06AHniVUC9CitQ3V44/3zcK9QOZhRTaDEHKCNt6Va5xDhV9a60ASN2An+nrtmkxX7Bs0UhGE6vPS2t4wEfy+IBsAoISciyRPxBJsaX6UXrdyjyVwN16/isNZW9HGy+90Hdz6wNU7Ukq8V8//B2posSq2NuAXAAAAAElFTkSuQmCC;fontSize=8;spacingTop=-6;aspect=fixed;" parent="zK4Mn87WcBIrCbpFITka-36" vertex="1">
                    <mxGeometry x="158" y="360" width="48.5" height="48.5" as="geometry"/>
                </mxCell>
                <mxCell id="lGRQKA28tMj7_omFJN81-3" value="DNS Public Zone" style="pointerEvents=1;shadow=0;dashed=0;html=1;strokeColor=none;fillColor=#005F4B;labelPosition=center;verticalLabelPosition=bottom;verticalAlign=top;align=center;outlineConnect=0;shape=mxgraph.veeam2.dns;labelBackgroundColor=none;fontColor=#000000;" parent="wFcLuxpcmioQkO3KB6M4-1" vertex="1">
                    <mxGeometry x="1390" y="400.5" width="58" height="60" as="geometry"/>
                </mxCell>
                <mxCell id="lGRQKA28tMj7_omFJN81-4" value="DNS Private Zone" style="pointerEvents=1;shadow=0;dashed=0;html=1;strokeColor=none;fillColor=#005F4B;labelPosition=center;verticalLabelPosition=bottom;verticalAlign=top;align=center;outlineConnect=0;shape=mxgraph.veeam2.dns;labelBackgroundColor=none;fontColor=#000000;" parent="wFcLuxpcmioQkO3KB6M4-1" vertex="1">
                    <mxGeometry x="1380" y="752.54" width="58" height="60" as="geometry"/>
                </mxCell>
                <mxCell id="6QOT3MC5WNKS1KmKuTmx-37" style="edgeStyle=orthogonalEdgeStyle;rounded=0;orthogonalLoop=1;jettySize=auto;html=1;fontColor=#000000;strokeColor=#FF3333;" parent="wFcLuxpcmioQkO3KB6M4-1" source="6QOT3MC5WNKS1KmKuTmx-0" target="tarBgke6ixM7yctaXvzE-4" edge="1">
                    <mxGeometry x="280" y="220" as="geometry"/>
                </mxCell>
                <mxCell id="6QOT3MC5WNKS1KmKuTmx-38" style="edgeStyle=orthogonalEdgeStyle;rounded=0;orthogonalLoop=1;jettySize=auto;html=1;fontColor=#000000;strokeColor=#FF3333;" parent="wFcLuxpcmioQkO3KB6M4-1" source="6QOT3MC5WNKS1KmKuTmx-0" target="tarBgke6ixM7yctaXvzE-3" edge="1">
                    <mxGeometry x="280" y="220" as="geometry"/>
                </mxCell>
                <mxCell id="6QOT3MC5WNKS1KmKuTmx-0" value="Control Plane NLB" style="aspect=fixed;perimeter=ellipsePerimeter;html=1;align=center;shadow=0;dashed=0;fontColor=#4277BB;labelBackgroundColor=#ffffff;fontSize=12;spacingTop=3;image;image=img/lib/ibm/vpc/LoadBalancer.svg;fillColor=none;" parent="wFcLuxpcmioQkO3KB6M4-1" vertex="1">
                    <mxGeometry x="760" y="880" width="60" height="60" as="geometry"/>
                </mxCell>
                <mxCell id="tarBgke6ixM7yctaXvzE-4" value="Private subnet" style="points=[[0,0],[0.25,0],[0.5,0],[0.75,0],[1,0],[1,0.25],[1,0.5],[1,0.75],[1,1],[0.75,1],[0.5,1],[0.25,1],[0,1],[0,0.75],[0,0.5],[0,0.25]];outlineConnect=0;gradientColor=none;html=1;whiteSpace=wrap;fontSize=12;fontStyle=0;shape=mxgraph.aws4.group;grIcon=mxgraph.aws4.group_security_group;grStroke=0;strokeColor=#147EBA;fillColor=#E6F2F8;verticalAlign=top;align=left;spacingLeft=30;fontColor=#147EBA;dashed=0;" parent="wFcLuxpcmioQkO3KB6M4-1" vertex="1">
                    <mxGeometry x="930" y="600" width="210" height="210" as="geometry"/>
                </mxCell>
                <mxCell id="6QOT3MC5WNKS1KmKuTmx-49" style="edgeStyle=orthogonalEdgeStyle;rounded=0;orthogonalLoop=1;jettySize=auto;html=1;fontColor=#000000;entryX=0;entryY=0.5;entryDx=0;entryDy=0;" parent="wFcLuxpcmioQkO3KB6M4-1" source="6QOT3MC5WNKS1KmKuTmx-21" target="6QOT3MC5WNKS1KmKuTmx-48" edge="1">
                    <mxGeometry x="280" y="220" as="geometry"/>
                </mxCell>
                <mxCell id="6QOT3MC5WNKS1KmKuTmx-56" style="edgeStyle=orthogonalEdgeStyle;rounded=0;orthogonalLoop=1;jettySize=auto;html=1;fontColor=#000000;exitX=1;exitY=0;exitDx=0;exitDy=0;" parent="wFcLuxpcmioQkO3KB6M4-1" source="6QOT3MC5WNKS1KmKuTmx-21" target="6QOT3MC5WNKS1KmKuTmx-28" edge="1">
                    <mxGeometry x="280" y="220" as="geometry"/>
                </mxCell>
                <mxCell id="6QOT3MC5WNKS1KmKuTmx-57" style="edgeStyle=orthogonalEdgeStyle;rounded=0;orthogonalLoop=1;jettySize=auto;html=1;strokeColor=#000000;fontColor=#000000;" parent="wFcLuxpcmioQkO3KB6M4-1" source="6QOT3MC5WNKS1KmKuTmx-21" target="6QOT3MC5WNKS1KmKuTmx-25" edge="1">
                    <mxGeometry x="280" y="220" as="geometry">
                        <Array as="points">
                            <mxPoint x="716" y="980"/>
                            <mxPoint x="716" y="980"/>
                        </Array>
                    </mxGeometry>
                </mxCell>
                <mxCell id="6QOT3MC5WNKS1KmKuTmx-21" value="API NLB" style="aspect=fixed;perimeter=ellipsePerimeter;html=1;align=center;shadow=0;dashed=0;fontColor=#4277BB;labelBackgroundColor=#ffffff;fontSize=12;spacingTop=3;image;image=img/lib/ibm/vpc/LoadBalancer.svg;fillColor=none;" parent="wFcLuxpcmioQkO3KB6M4-1" vertex="1">
                    <mxGeometry x="710" y="980" width="60" height="60" as="geometry"/>
                </mxCell>
                <mxCell id="6QOT3MC5WNKS1KmKuTmx-51" style="edgeStyle=orthogonalEdgeStyle;rounded=0;orthogonalLoop=1;jettySize=auto;html=1;entryX=0;entryY=0.5;entryDx=0;entryDy=0;fontColor=#000000;" parent="wFcLuxpcmioQkO3KB6M4-1" source="6QOT3MC5WNKS1KmKuTmx-22" target="6QOT3MC5WNKS1KmKuTmx-48" edge="1">
                    <mxGeometry x="280" y="220" as="geometry"/>
                </mxCell>
                <mxCell id="6QOT3MC5WNKS1KmKuTmx-52" style="edgeStyle=orthogonalEdgeStyle;rounded=0;orthogonalLoop=1;jettySize=auto;html=1;entryX=1;entryY=0.5;entryDx=0;entryDy=0;fontColor=#000000;" parent="wFcLuxpcmioQkO3KB6M4-1" source="6QOT3MC5WNKS1KmKuTmx-22" target="6QOT3MC5WNKS1KmKuTmx-26" edge="1">
                    <mxGeometry x="280" y="220" as="geometry"/>
                </mxCell>
                <mxCell id="zK4Mn87WcBIrCbpFITka-35" style="edgeStyle=orthogonalEdgeStyle;rounded=0;orthogonalLoop=1;jettySize=auto;html=1;entryX=0.75;entryY=0;entryDx=0;entryDy=0;strokeColor=#000000;fontColor=#000000;" parent="wFcLuxpcmioQkO3KB6M4-1" source="6QOT3MC5WNKS1KmKuTmx-22" target="6QOT3MC5WNKS1KmKuTmx-23" edge="1">
                    <mxGeometry x="280" y="220" as="geometry"/>
                </mxCell>
                <mxCell id="6QOT3MC5WNKS1KmKuTmx-22" value="Application ELB" style="aspect=fixed;perimeter=ellipsePerimeter;html=1;align=center;shadow=0;dashed=0;fontColor=#4277BB;labelBackgroundColor=#ffffff;fontSize=12;spacingTop=3;image;image=img/lib/ibm/vpc/LoadBalancer.svg;fillColor=none;" parent="wFcLuxpcmioQkO3KB6M4-1" vertex="1">
                    <mxGeometry x="1170" y="540" width="60" height="60" as="geometry"/>
                </mxCell>
                <mxCell id="6QOT3MC5WNKS1KmKuTmx-43" style="edgeStyle=orthogonalEdgeStyle;rounded=0;orthogonalLoop=1;jettySize=auto;html=1;fontColor=#000000;dashed=1;" parent="wFcLuxpcmioQkO3KB6M4-1" source="6QOT3MC5WNKS1KmKuTmx-25" target="6QOT3MC5WNKS1KmKuTmx-40" edge="1">
                    <mxGeometry x="280" y="220" as="geometry"/>
                </mxCell>
                <mxCell id="6QOT3MC5WNKS1KmKuTmx-44" style="edgeStyle=orthogonalEdgeStyle;rounded=0;orthogonalLoop=1;jettySize=auto;html=1;entryX=0.5;entryY=1;entryDx=0;entryDy=0;fontColor=#000000;dashed=1;" parent="wFcLuxpcmioQkO3KB6M4-1" source="6QOT3MC5WNKS1KmKuTmx-26" target="6QOT3MC5WNKS1KmKuTmx-41" edge="1">
                    <mxGeometry x="280" y="220" as="geometry"/>
                </mxCell>
                <mxCell id="6QOT3MC5WNKS1KmKuTmx-26" value="WORKER&#10;NODE 1" style="shape=image;verticalLabelPosition=bottom;verticalAlign=middle;imageAspect=0;image=data:image/png,iVBORw0KGgoAAAANSUhEUgAAAHQAAAB2CAYAAAAZUrcsAAAAAXNSR0IArs4c6QAAAAlwSFlzAAAXEgAAFxIBZ5/SUgAADdNJREFUeAHtXQuQFMUZ/ntmd8/jDgUOoxxRTEwiBrWiaOS4fXjyNEBVNIFo1BhNCmPUMhTcAZqKq/EFe+eDECvxkcRXGUBLtCwCBXre7p5CEENFL4nP5BCxRMDHcZx3uzOdv/eYYXZuHzOzM7OzXk/V1sx0//3/f3/fdk9PP6YB+MER4Ah4FwHiXdds84xE20+qgr7jAoEA9Q+IAxIcFAe6+nb0r1sAkm1WPKKo4gmNrp0UOOq4ulNEQicRAU4FIBMGfzAOMa7DDI4GAmJuvOnnlMJ+jNtLCNklU9pNKHlbpnLXIamnK9q089Pc6bwbWnGE3pkIjvZTMg1EEgQKU5CsMwmQgEMQv4M2tgKRX5bSZEtLJP62Q3ZsU1sRhK7oCJ8qCvADLIHzKMDZSKBgGwImFKHtbqD0b5TKT/emky9FmyBtIrkrop4l9PZ4aFyVKFyOAF6B1eG3XUHDlBF6QKZkDUnDn5ec17HdVFIHhT1H6IpkpMkH9AZ8Ds7N/+xzEBELqrHkvkFBXrXng/Tj9yx4pc+CCtuSeILQaBSEkdPD8xGYG7E0nmFb7lxWhP7vpzJd3Zv+/N5yNajKTmgsGV4gEIhiicQW6pfloJ9jdXyfDOnY0mBnj5u5KhuhbR3hqdhSbcNqdYqbGXbTFgW6F9sAN2/bk3jQrXde1wm9Y8t36wLV1TE0fKWb4JbTFr7r7sT28EI3Gk+uEtqaCF4CRFxFCIwtJ8DlsI2lVUawV+/+ILXMyYaTK4RmOgME8X40dnE5wPSSTSytb0qQvgyfra864ZfjhMYSwXMJEdZh6/UEJzJQiTqR1DTWUksXN3bcbbf/jhLalghfSwW428GuObvxcFUfvuY8JdH0VXa2hB0hNNoOvpH+8Gog5GpXEapIY/R1bDDNWRyJv2+H+7YTuiLZOFIk4joslbPscHBY6KD0Q+wfnrcklNxRan5t7eSObmwY4wPfi5xMk7QQMg7HG9pXxkMRkymHiNtWQle2n3O8EBixGRWeNsQKDzCIAO2TZPmillByo8EEQ8RsIbS1ffJY8Nd0eHNUZEievR1AoV+m0tzmUHKLFUdLrnLv2jz5GBKo2cTJtAJ/jjQEqggR12P125gjtmhQSYSy6R++6tr12LF+VlFLXMAwAviOWiMKwvNsYN9wosOCJRE6sr7uQTR+nlmjXN4AAgRG+XxkQ6xz6lcMSKsilgltTYaX4XvmT1RN/MIJBE4i1Ld+4R8n+40qt0RorCN8Pr6a3GbUCJezjgC2TRpOmVRjuIvQdCsXOw7qfSDuxNJ5rHU3eUqzCMiSfElzOPHXYunMEkrakuGNSObMYooLxYvEDwFxRCER2+MkmoIB6VBGb7ntW8kc9vt+lqbSGcuCyV2F0vsKRerjWjtD12GLtiQymc6TxzTC3FOievWO3r+17yV4/q1Bm3r7aXkgQzYjuspXo/phVzhTqLWvGjBxgSXvGKwZH8Ek5+MP+c19GH6G4nPza/jcvCu3GuuhDLRDqU+hP92bpSRfOBPKF5cvPEtxjpv3DrwMf9j+fdj8biwr1q7wLKUl3LA3itZE5JpCKgwTSkT4PZZO2+tJs6CxzFhJUwiEiooT4A42Zzmfz4YIbY2HfoitrQvyKeHh7iHAqt4qgdyTz2JRQllvEBHIinwKeLj7CGDh+lGsM9KQy3JRQmvH1V2Prdqv50rMw8qHAKG0LZf1goRG2yfVgkCW50rIw8qLAOtwiCUi8/ReFCS0xld3LdbZdfpE/N4bCOCKg9/oPclL6KK1DdX4L1iiT8DvPYQAgbNXJoKztR7lJbR+vO8yfO8ZdhOiteBUwrVIhEVaP/MSKlABl/Txw/MIEJihHTfNSWhrRziMi4gmeT4z3EFEgBCfD36hQJGTUPCRnyoC/Ox9BCiQS1l/AfN0CKGxTWfUEArzvZ8N7qGCAHsTqa2vm8vuhxAqjBj9PaxuaxVhfq4YBBYwT4cQimtRLqqYLHBHVQRwJGwOfmDrqCxCM3NXKJ2jSvGLykEAa9Ua8YRpWYR+a2JNA3YmjKycXHBPtQgIIpmZRSj4YIZWgF9XHAIzsgml5LyKywJ3WIMAOVUllK3pJIRO1sTyywpEQCV0hBjCDz6R6grMA3dZg4BKqEjIdzTh/LJCEVAJlYHyvtsKJVHrtkoozhvihGqRqdBrlVCg5KQKzQN3W4OASii2cE/UhA+rS1EIQLV/FC7PqMnKt13hWUodvskshWDf3ytXC9csaAwPK2kK4XjymKlwzRhct6w77ArXqXX0NkNoVVWgbBPBzILG0LCSxlEUPaQ8Q6gsiHVq3euCc8oaFBdMqSb6pSNrZ8ptX3XKgQscGwVY2RmeKQLZ5IB+rtJlBDIFk8ikymW73JxDCGSqXCrIOB/FvUq33Atuy23fIS4zajOEChRnEWUqXydNHdGtXXDLnmdsZbXRxbZMi5U02gW3WvtW9JVq/wgS9l9liiXuZNBvv2pjGq2s9bSSppA3ZvWZlS9k2+64wWeoIAzYrZjrKw8Cgw/ONFTcpm3lgcv7VjOEyv7UAe+7yj00gsAgoYf69xkR5jLeRyBD6LIZOz6jlPZ4313uYTEEBp+hTIqQ7mLCPN77CBwhlNL3vO8u97AYAiqhOJW+q5gwj/c+AiqhuJUTJ9T7fBX1UCVUkuC1otJcwPMIqIQujcT/g58E5B0MnqessIMqoShGsY9+W2FxHutlBNgOiFpC8Rbaveww960oAjuyCaV0c9EkXMC7CCB/WYS2hBP/QG8/8q7H3LOCCEhkUxahKIxbW9JnCybikd5EgNKPt30U79QTCjLA0970mHtVEAFK1rON24cQemgg/iKW0r0FE/NIzyEgyzSzY8QQQqNNkMYpKY97zmPuUF4EcEeB7uZIPPOGMoRQlkqSyV/ypuYRnkMACyDjC3kF/ExGjmNZJP56a2c4jh324RzRhoJG+EfDJaffr8omdz0Eb+57Qb0fzhf1I0+DC755kwrB1t2PQdfeDeq9uQuakon0gJImJ6GZSAr34dROy4QKuI3E0VXHK3YgIPDV/goYPqEqC5uqEjYlwvm3T+Gm7HsU3TmrXBa5bU/8WXyHeVcR5GePIiBLWd+ez0soawLjh+rv8Gg2uFsMAUo36Ddiz0sok+9Jxx/FuUb/ZddOHVbWelpJU8h/s/rMyheyXUqcTOVb9enzP0NRkr3CxJLwa1wl8YQ+oV33VtZ6WklTyF+z+szKF7JtOY7SZ3Cf7iGjYwVLKDPWHIw/iR0N2y0b5gkdQICmcELC0lyKC5bQwwmoLNFFoggJNjUwlxIjYazVqxzKglt8LVKCHD8PSH2qDZmmoS/1mXrv9AUWCNAuOC7VHvYK/a4lkng7lx4jhAKOwnS2JiMPI50/z6XESNixNd9Qxd77ZHA3QDXA5Yt3DiSB/SrxwDbN+73pAzfn871olaskTFGphffxKmiU74x12nXRpq6D+TwwTOjyUPITJHRhPkU83HkEsG/vscXB+HOFLBmqchUFzY2JZ3HL5ofxUfozJczoeeLYaTBh1DlGxb/UcqynyPRB6a50X+/1xdKZIpQp60nt/1VtYGwjFv2JxZRr4/1iNbAfP8wjgD12aQD5UrYGqVhqw1WuoojV31KaXoQNt7z1uCLLz3YhILcsCSYNteJMl1DmIs7h/XdbInIVELom36uMTCXYf6jbrhx9qfV8kc6/8A9btWuWBBN5d/TVA1PSi2BbZxjHgMhteqX83iYEKGztSXU3RZv+94VRjSURyoy0dkb+hEquNGqQyxlEAFcD9st0yo3hxMcGU2TETD9D9coPDnQsxF7/Z/Th/L4kBD6QJZhulkxmsWRCWQd+z579F+M7Kv+0XEkcHk6M0zHpwMB0nCNkaZSr5CpXyQPbpqk2cOJTbMsmJYyfTSJA6Yc4P2j6knDiXyZTquIll1BFE3twv/VG74V4v04J42fjCGAvULdE0qFSyGTWjgyBGLedV3LH8x/KU0/sfjpw8oRRWFKn5BXkEToE6Gv9Ep22PNS5Sxdh+ta2KldvOZYMXSeAcC+OkNn6p9HbqfR7fM98jvZ++uPmWf888kHfEjJlW5Wr96E5mFiN46gz+QiNHpnBe8RFxnHNWw5uiV9oF5lMs2MlVMnGbS80jK+u8q/BDv1GJWy4n7Fvdh/2pF3eEkputBsLx6vDFx/d3XPM7O5Hvnr0BPaByBD+hxy3aTdIturDmXpyqm92S2TrTlv1HlbmeAnVOr0yHjoL97h8CBtMZ2rDh8U1fr9CJnILDkE+6GR+XSWUZWT+WhCnjI/cgKM1t2CFPyz2+sZXkif7+75YdNP0bR85SSbT7TqhSoZuj4fGHSWQ31ICV2KJdaxxptgrz5n+nVJ5sdGhLzt8LBuhivN3dYRP94twM/61cDN367MKFX2eOFPows0Bb8UpsKyTBQuoe0fZCVWyGmufeprg9y1HYucjsX4lvJLO+CqyHSS6Ent72Cp4V4lUcPIMoYpDK5KN9QIVfykQwAF0Mk4J9+wZp9ziY+MZZG9Vc2PHK+X203OEKoCwxtM59eFZ+HC9AkvsHKyMa5S48p+xfwfgFZDJEymQnmQzIsvv06AHniVUC9CitQ3V44/3zcK9QOZhRTaDEHKCNt6Va5xDhV9a60ASN2An+nrtmkxX7Bs0UhGE6vPS2t4wEfy+IBsAoISciyRPxBJsaX6UXrdyjyVwN16/isNZW9HGy+90Hdz6wNU7Ukq8V8//B2posSq2NuAXAAAAAElFTkSuQmCC;fontSize=8;spacingTop=-6;aspect=fixed;" parent="wFcLuxpcmioQkO3KB6M4-1" vertex="1">
                    <mxGeometry x="1050" y="691.5" width="48.5" height="48.5" as="geometry"/>
                </mxCell>
                <mxCell id="6QOT3MC5WNKS1KmKuTmx-28" value="&lt;span style=&quot;background-color: rgb(230 , 242 , 248)&quot;&gt;Master node&lt;/span&gt;" style="aspect=fixed;perimeter=ellipsePerimeter;html=1;align=center;shadow=0;dashed=0;labelBackgroundColor=none;fontSize=12;spacingTop=3;image;image=img/lib/ibm/vpc/Instance.svg;fillColor=none;" parent="wFcLuxpcmioQkO3KB6M4-1" vertex="1">
                    <mxGeometry x="952.78" y="690" width="50" height="50" as="geometry"/>
                </mxCell>
                <mxCell id="6QOT3MC5WNKS1KmKuTmx-60" style="edgeStyle=orthogonalEdgeStyle;rounded=0;orthogonalLoop=1;jettySize=auto;html=1;entryX=0;entryY=0;entryDx=0;entryDy=0;strokeColor=#000000;fontColor=#000000;" parent="wFcLuxpcmioQkO3KB6M4-1" source="6QOT3MC5WNKS1KmKuTmx-40" target="6QOT3MC5WNKS1KmKuTmx-48" edge="1">
                    <mxGeometry x="280" y="220" as="geometry"/>
                </mxCell>
                <mxCell id="6QOT3MC5WNKS1KmKuTmx-59" style="edgeStyle=orthogonalEdgeStyle;rounded=0;orthogonalLoop=1;jettySize=auto;html=1;entryX=0;entryY=0;entryDx=0;entryDy=0;strokeColor=#000000;fontColor=#000000;" parent="wFcLuxpcmioQkO3KB6M4-1" source="6QOT3MC5WNKS1KmKuTmx-41" target="6QOT3MC5WNKS1KmKuTmx-48" edge="1">
                    <mxGeometry x="280" y="220" as="geometry"/>
                </mxCell>
                <mxCell id="6QOT3MC5WNKS1KmKuTmx-48" value="Internet Gateway" style="aspect=fixed;perimeter=ellipsePerimeter;html=1;align=center;shadow=0;dashed=0;fontColor=#4277BB;labelBackgroundColor=#ffffff;fontSize=12;spacingTop=3;image;image=img/lib/ibm/vpc/Router.svg;fillColor=none;" parent="wFcLuxpcmioQkO3KB6M4-1" vertex="1">
                    <mxGeometry x="1300" y="900" width="60" height="60" as="geometry"/>
                </mxCell>
                <mxCell id="-xe5Zi3iIcbzFhxBxrMK-4" value="Private subnet" style="points=[[0,0],[0.25,0],[0.5,0],[0.75,0],[1,0],[1,0.25],[1,0.5],[1,0.75],[1,1],[0.75,1],[0.5,1],[0.25,1],[0,1],[0,0.75],[0,0.5],[0,0.25]];outlineConnect=0;gradientColor=none;html=1;whiteSpace=wrap;fontSize=12;fontStyle=0;shape=mxgraph.aws4.group;grIcon=mxgraph.aws4.group_security_group;grStroke=0;strokeColor=#147EBA;fillColor=#E6F2F8;verticalAlign=top;align=left;spacingLeft=30;fontColor=#147EBA;dashed=0;" parent="wFcLuxpcmioQkO3KB6M4-1" vertex="1">
                    <mxGeometry x="380" y="600" width="250.00000000000003" height="210" as="geometry"/>
                </mxCell>
                <mxCell id="6QOT3MC5WNKS1KmKuTmx-36" style="edgeStyle=orthogonalEdgeStyle;rounded=0;orthogonalLoop=1;jettySize=auto;html=1;fontColor=#000000;strokeColor=#FF3333;" parent="wFcLuxpcmioQkO3KB6M4-1" source="6QOT3MC5WNKS1KmKuTmx-0" target="-xe5Zi3iIcbzFhxBxrMK-4" edge="1">
                    <mxGeometry x="280" y="220" as="geometry"/>
                </mxCell>
                <mxCell id="lGRQKA28tMj7_omFJN81-2" value="&lt;span style=&quot;background-color: rgb(230 , 242 , 248)&quot;&gt;Master node&lt;/span&gt;" style="aspect=fixed;perimeter=ellipsePerimeter;html=1;align=center;shadow=0;dashed=0;labelBackgroundColor=none;fontSize=12;spacingTop=3;image;image=img/lib/ibm/vpc/Instance.svg;fillColor=none;" parent="wFcLuxpcmioQkO3KB6M4-1" vertex="1">
                    <mxGeometry x="420" y="645" width="48.28" height="48.28" as="geometry"/>
                </mxCell>
                <mxCell id="tarBgke6ixM7yctaXvzE-0" value="WORKER&#10;NODE 1" style="shape=image;verticalLabelPosition=bottom;verticalAlign=middle;imageAspect=0;image=data:image/png,iVBORw0KGgoAAAANSUhEUgAAAHQAAAB2CAYAAAAZUrcsAAAAAXNSR0IArs4c6QAAAAlwSFlzAAAXEgAAFxIBZ5/SUgAADdNJREFUeAHtXQuQFMUZ/ntmd8/jDgUOoxxRTEwiBrWiaOS4fXjyNEBVNIFo1BhNCmPUMhTcAZqKq/EFe+eDECvxkcRXGUBLtCwCBXre7p5CEENFL4nP5BCxRMDHcZx3uzOdv/eYYXZuHzOzM7OzXk/V1sx0//3/f3/fdk9PP6YB+MER4Ah4FwHiXdds84xE20+qgr7jAoEA9Q+IAxIcFAe6+nb0r1sAkm1WPKKo4gmNrp0UOOq4ulNEQicRAU4FIBMGfzAOMa7DDI4GAmJuvOnnlMJ+jNtLCNklU9pNKHlbpnLXIamnK9q089Pc6bwbWnGE3pkIjvZTMg1EEgQKU5CsMwmQgEMQv4M2tgKRX5bSZEtLJP62Q3ZsU1sRhK7oCJ8qCvADLIHzKMDZSKBgGwImFKHtbqD0b5TKT/emky9FmyBtIrkrop4l9PZ4aFyVKFyOAF6B1eG3XUHDlBF6QKZkDUnDn5ec17HdVFIHhT1H6IpkpMkH9AZ8Ds7N/+xzEBELqrHkvkFBXrXng/Tj9yx4pc+CCtuSeILQaBSEkdPD8xGYG7E0nmFb7lxWhP7vpzJd3Zv+/N5yNajKTmgsGV4gEIhiicQW6pfloJ9jdXyfDOnY0mBnj5u5KhuhbR3hqdhSbcNqdYqbGXbTFgW6F9sAN2/bk3jQrXde1wm9Y8t36wLV1TE0fKWb4JbTFr7r7sT28EI3Gk+uEtqaCF4CRFxFCIwtJ8DlsI2lVUawV+/+ILXMyYaTK4RmOgME8X40dnE5wPSSTSytb0qQvgyfra864ZfjhMYSwXMJEdZh6/UEJzJQiTqR1DTWUksXN3bcbbf/jhLalghfSwW428GuObvxcFUfvuY8JdH0VXa2hB0hNNoOvpH+8Gog5GpXEapIY/R1bDDNWRyJv2+H+7YTuiLZOFIk4joslbPscHBY6KD0Q+wfnrcklNxRan5t7eSObmwY4wPfi5xMk7QQMg7HG9pXxkMRkymHiNtWQle2n3O8EBixGRWeNsQKDzCIAO2TZPmillByo8EEQ8RsIbS1ffJY8Nd0eHNUZEievR1AoV+m0tzmUHKLFUdLrnLv2jz5GBKo2cTJtAJ/jjQEqggR12P125gjtmhQSYSy6R++6tr12LF+VlFLXMAwAviOWiMKwvNsYN9wosOCJRE6sr7uQTR+nlmjXN4AAgRG+XxkQ6xz6lcMSKsilgltTYaX4XvmT1RN/MIJBE4i1Ld+4R8n+40qt0RorCN8Pr6a3GbUCJezjgC2TRpOmVRjuIvQdCsXOw7qfSDuxNJ5rHU3eUqzCMiSfElzOPHXYunMEkrakuGNSObMYooLxYvEDwFxRCER2+MkmoIB6VBGb7ntW8kc9vt+lqbSGcuCyV2F0vsKRerjWjtD12GLtiQymc6TxzTC3FOievWO3r+17yV4/q1Bm3r7aXkgQzYjuspXo/phVzhTqLWvGjBxgSXvGKwZH8Ek5+MP+c19GH6G4nPza/jcvCu3GuuhDLRDqU+hP92bpSRfOBPKF5cvPEtxjpv3DrwMf9j+fdj8biwr1q7wLKUl3LA3itZE5JpCKgwTSkT4PZZO2+tJs6CxzFhJUwiEiooT4A42Zzmfz4YIbY2HfoitrQvyKeHh7iHAqt4qgdyTz2JRQllvEBHIinwKeLj7CGDh+lGsM9KQy3JRQmvH1V2Prdqv50rMw8qHAKG0LZf1goRG2yfVgkCW50rIw8qLAOtwiCUi8/ReFCS0xld3LdbZdfpE/N4bCOCKg9/oPclL6KK1DdX4L1iiT8DvPYQAgbNXJoKztR7lJbR+vO8yfO8ZdhOiteBUwrVIhEVaP/MSKlABl/Txw/MIEJihHTfNSWhrRziMi4gmeT4z3EFEgBCfD36hQJGTUPCRnyoC/Ox9BCiQS1l/AfN0CKGxTWfUEArzvZ8N7qGCAHsTqa2vm8vuhxAqjBj9PaxuaxVhfq4YBBYwT4cQimtRLqqYLHBHVQRwJGwOfmDrqCxCM3NXKJ2jSvGLykEAa9Ua8YRpWYR+a2JNA3YmjKycXHBPtQgIIpmZRSj4YIZWgF9XHAIzsgml5LyKywJ3WIMAOVUllK3pJIRO1sTyywpEQCV0hBjCDz6R6grMA3dZg4BKqEjIdzTh/LJCEVAJlYHyvtsKJVHrtkoozhvihGqRqdBrlVCg5KQKzQN3W4OASii2cE/UhA+rS1EIQLV/FC7PqMnKt13hWUodvskshWDf3ytXC9csaAwPK2kK4XjymKlwzRhct6w77ArXqXX0NkNoVVWgbBPBzILG0LCSxlEUPaQ8Q6gsiHVq3euCc8oaFBdMqSb6pSNrZ8ptX3XKgQscGwVY2RmeKQLZ5IB+rtJlBDIFk8ikymW73JxDCGSqXCrIOB/FvUq33Atuy23fIS4zajOEChRnEWUqXydNHdGtXXDLnmdsZbXRxbZMi5U02gW3WvtW9JVq/wgS9l9liiXuZNBvv2pjGq2s9bSSppA3ZvWZlS9k2+64wWeoIAzYrZjrKw8Cgw/ONFTcpm3lgcv7VjOEyv7UAe+7yj00gsAgoYf69xkR5jLeRyBD6LIZOz6jlPZ4313uYTEEBp+hTIqQ7mLCPN77CBwhlNL3vO8u97AYAiqhOJW+q5gwj/c+AiqhuJUTJ9T7fBX1UCVUkuC1otJcwPMIqIQujcT/g58E5B0MnqessIMqoShGsY9+W2FxHutlBNgOiFpC8Rbaveww960oAjuyCaV0c9EkXMC7CCB/WYS2hBP/QG8/8q7H3LOCCEhkUxahKIxbW9JnCybikd5EgNKPt30U79QTCjLA0970mHtVEAFK1rON24cQemgg/iKW0r0FE/NIzyEgyzSzY8QQQqNNkMYpKY97zmPuUF4EcEeB7uZIPPOGMoRQlkqSyV/ypuYRnkMACyDjC3kF/ExGjmNZJP56a2c4jh324RzRhoJG+EfDJaffr8omdz0Eb+57Qb0fzhf1I0+DC755kwrB1t2PQdfeDeq9uQuakon0gJImJ6GZSAr34dROy4QKuI3E0VXHK3YgIPDV/goYPqEqC5uqEjYlwvm3T+Gm7HsU3TmrXBa5bU/8WXyHeVcR5GePIiBLWd+ez0soawLjh+rv8Gg2uFsMAUo36Ddiz0sok+9Jxx/FuUb/ZddOHVbWelpJU8h/s/rMyheyXUqcTOVb9enzP0NRkr3CxJLwa1wl8YQ+oV33VtZ6WklTyF+z+szKF7JtOY7SZ3Cf7iGjYwVLKDPWHIw/iR0N2y0b5gkdQICmcELC0lyKC5bQwwmoLNFFoggJNjUwlxIjYazVqxzKglt8LVKCHD8PSH2qDZmmoS/1mXrv9AUWCNAuOC7VHvYK/a4lkng7lx4jhAKOwnS2JiMPI50/z6XESNixNd9Qxd77ZHA3QDXA5Yt3DiSB/SrxwDbN+73pAzfn871olaskTFGphffxKmiU74x12nXRpq6D+TwwTOjyUPITJHRhPkU83HkEsG/vscXB+HOFLBmqchUFzY2JZ3HL5ofxUfozJczoeeLYaTBh1DlGxb/UcqynyPRB6a50X+/1xdKZIpQp60nt/1VtYGwjFv2JxZRr4/1iNbAfP8wjgD12aQD5UrYGqVhqw1WuoojV31KaXoQNt7z1uCLLz3YhILcsCSYNteJMl1DmIs7h/XdbInIVELom36uMTCXYf6jbrhx9qfV8kc6/8A9btWuWBBN5d/TVA1PSi2BbZxjHgMhteqX83iYEKGztSXU3RZv+94VRjSURyoy0dkb+hEquNGqQyxlEAFcD9st0yo3hxMcGU2TETD9D9coPDnQsxF7/Z/Th/L4kBD6QJZhulkxmsWRCWQd+z579F+M7Kv+0XEkcHk6M0zHpwMB0nCNkaZSr5CpXyQPbpqk2cOJTbMsmJYyfTSJA6Yc4P2j6knDiXyZTquIll1BFE3twv/VG74V4v04J42fjCGAvULdE0qFSyGTWjgyBGLedV3LH8x/KU0/sfjpw8oRRWFKn5BXkEToE6Gv9Ep22PNS5Sxdh+ta2KldvOZYMXSeAcC+OkNn6p9HbqfR7fM98jvZ++uPmWf888kHfEjJlW5Wr96E5mFiN46gz+QiNHpnBe8RFxnHNWw5uiV9oF5lMs2MlVMnGbS80jK+u8q/BDv1GJWy4n7Fvdh/2pF3eEkputBsLx6vDFx/d3XPM7O5Hvnr0BPaByBD+hxy3aTdIturDmXpyqm92S2TrTlv1HlbmeAnVOr0yHjoL97h8CBtMZ2rDh8U1fr9CJnILDkE+6GR+XSWUZWT+WhCnjI/cgKM1t2CFPyz2+sZXkif7+75YdNP0bR85SSbT7TqhSoZuj4fGHSWQ31ICV2KJdaxxptgrz5n+nVJ5sdGhLzt8LBuhivN3dYRP94twM/61cDN367MKFX2eOFPows0Bb8UpsKyTBQuoe0fZCVWyGmufeprg9y1HYucjsX4lvJLO+CqyHSS6Ent72Cp4V4lUcPIMoYpDK5KN9QIVfykQwAF0Mk4J9+wZp9ziY+MZZG9Vc2PHK+X203OEKoCwxtM59eFZ+HC9AkvsHKyMa5S48p+xfwfgFZDJEymQnmQzIsvv06AHniVUC9CitQ3V44/3zcK9QOZhRTaDEHKCNt6Va5xDhV9a60ASN2An+nrtmkxX7Bs0UhGE6vPS2t4wEfy+IBsAoISciyRPxBJsaX6UXrdyjyVwN16/isNZW9HGy+90Hdz6wNU7Ukq8V8//B2posSq2NuAXAAAAAElFTkSuQmCC;fontSize=8;spacingTop=-6;aspect=fixed;" parent="wFcLuxpcmioQkO3KB6M4-1" vertex="1">
                    <mxGeometry x="542.59" y="645" width="47.41" height="47.41" as="geometry"/>
                </mxCell>
                <mxCell id="6QOT3MC5WNKS1KmKuTmx-58" style="edgeStyle=orthogonalEdgeStyle;rounded=0;orthogonalLoop=1;jettySize=auto;html=1;strokeColor=#000000;fontColor=#000000;entryX=0;entryY=0.5;entryDx=0;entryDy=0;" parent="wFcLuxpcmioQkO3KB6M4-1" source="6QOT3MC5WNKS1KmKuTmx-21" target="lGRQKA28tMj7_omFJN81-2" edge="1">
                    <mxGeometry x="280" y="220" as="geometry"/>
                </mxCell>
                <mxCell id="6QOT3MC5WNKS1KmKuTmx-42" style="edgeStyle=orthogonalEdgeStyle;rounded=0;orthogonalLoop=1;jettySize=auto;html=1;fontColor=#000000;dashed=1;" parent="wFcLuxpcmioQkO3KB6M4-1" source="tarBgke6ixM7yctaXvzE-0" target="6QOT3MC5WNKS1KmKuTmx-39" edge="1">
                    <mxGeometry x="280" y="220" as="geometry"/>
                </mxCell>
                <mxCell id="6QOT3MC5WNKS1KmKuTmx-61" style="edgeStyle=orthogonalEdgeStyle;rounded=0;orthogonalLoop=1;jettySize=auto;html=1;strokeColor=#000000;fontColor=#000000;" parent="wFcLuxpcmioQkO3KB6M4-1" source="6QOT3MC5WNKS1KmKuTmx-39" edge="1">
                    <mxGeometry relative="1" as="geometry">
                        <mxPoint x="1310" y="900" as="targetPoint"/>
                    </mxGeometry>
                </mxCell>
                <mxCell id="zK4Mn87WcBIrCbpFITka-34" style="edgeStyle=orthogonalEdgeStyle;rounded=0;orthogonalLoop=1;jettySize=auto;html=1;strokeColor=#000000;fontColor=#000000;entryX=0.75;entryY=0;entryDx=0;entryDy=0;" parent="wFcLuxpcmioQkO3KB6M4-1" source="6QOT3MC5WNKS1KmKuTmx-22" target="tarBgke6ixM7yctaXvzE-0" edge="1">
                    <mxGeometry x="280" y="220" as="geometry"/>
                </mxCell>
                <mxCell id="6QOT3MC5WNKS1KmKuTmx-25" value="&lt;span style=&quot;background-color: rgb(230 , 242 , 248)&quot;&gt;Master node&lt;/span&gt;" style="aspect=fixed;perimeter=ellipsePerimeter;html=1;align=center;shadow=0;dashed=0;labelBackgroundColor=none;fontSize=12;spacingTop=3;image;image=img/lib/ibm/vpc/Instance.svg;fillColor=none;" parent="wFcLuxpcmioQkO3KB6M4-1" vertex="1">
                    <mxGeometry x="695" y="645" width="50" height="50" as="geometry"/>
                </mxCell>
                <mxCell id="zK4Mn87WcBIrCbpFITka-39" style="edgeStyle=orthogonalEdgeStyle;rounded=0;orthogonalLoop=1;jettySize=auto;html=1;fontColor=#000000;dashed=1;" parent="wFcLuxpcmioQkO3KB6M4-1" source="6QOT3MC5WNKS1KmKuTmx-23" target="6QOT3MC5WNKS1KmKuTmx-25" edge="1">
                    <mxGeometry x="280" y="220" as="geometry">
                        <mxPoint x="790" y="714.2500000000005" as="sourcePoint"/>
                        <mxPoint x="720" y="470" as="targetPoint"/>
                    </mxGeometry>
                </mxCell>
                <mxCell id="zK4Mn87WcBIrCbpFITka-44" value="" style="aspect=fixed;perimeter=ellipsePerimeter;html=1;align=center;shadow=0;dashed=0;fontColor=#4277BB;labelBackgroundColor=#ffffff;fontSize=12;spacingTop=3;image;image=img/lib/ibm/vpc/VPNGateway.svg;fillColor=none;" parent="wFcLuxpcmioQkO3KB6M4-1" vertex="1">
                    <mxGeometry x="1485" y="930" width="60" height="60" as="geometry"/>
                </mxCell>
                <mxCell id="zK4Mn87WcBIrCbpFITka-46" style="edgeStyle=orthogonalEdgeStyle;rounded=0;orthogonalLoop=1;jettySize=auto;html=1;entryX=0;entryY=1;entryDx=0;entryDy=0;strokeColor=#000000;fontColor=#000000;" parent="wFcLuxpcmioQkO3KB6M4-1" source="zK4Mn87WcBIrCbpFITka-45" target="6QOT3MC5WNKS1KmKuTmx-21" edge="1">
                    <mxGeometry relative="1" as="geometry">
                        <Array as="points">
                            <mxPoint x="300" y="1031"/>
                        </Array>
                    </mxGeometry>
                </mxCell>
            </root>
        </mxGraphModel>
    </diagram>
</mxfile>